<svg width="83" height="84" viewBox="0 0 83 84" fill="none" xmlns="http://www.w3.org/2000/svg">
<g opacity="0.25">
<path d="M47.9031 58.2184C48.6637 58.4244 49.4305 58.6183 50.2169 58.7843C50.6108 58.8665 51.0076 58.9439 51.4198 59.0036L51.7285 59.0486L52.0485 59.0824C52.2561 59.1092 52.4917 59.1132 52.7146 59.1251C52.9655 59.1385 53.2125 59.0585 53.4083 58.9004C53.6041 58.7422 53.7349 58.5171 53.7756 58.2681L53.7804 58.2375C54.3132 54.9596 54.3769 51.622 53.9696 48.326L53.8013 47.0916C53.7344 46.6819 53.6387 46.2766 53.5585 45.869L53.4324 45.2587L53.3693 44.9536C53.3484 44.8519 53.3156 44.7529 53.2893 44.6524L52.9545 43.4511C52.8969 43.2515 52.8464 43.0498 52.7828 42.852L52.5746 42.2641L52.1573 41.089C52.0056 40.7022 51.8302 40.3247 51.6674 39.9424C51.4966 39.5636 51.3499 39.1736 51.1468 38.8101L50.3883 37.3548L49.5331 35.9532C49.3969 35.7155 49.2336 35.4955 49.076 35.2718L48.6017 34.6018L48.3645 34.267L48.2459 34.0996L48.1165 33.9404L47.5989 33.3039L47.0811 32.6678C46.905 32.459 46.7119 32.2651 46.5281 32.0631L45.9702 31.463L45.6911 31.1634L45.3936 30.8824C44.9948 30.5101 44.6054 30.1275 44.1996 29.7642L42.9434 28.7203C38.5929 25.2672 33.2853 23.1206 27.8218 22.3527C25.085 21.9704 22.3125 21.9175 19.5632 22.1952C16.8177 22.4752 14.1112 23.0568 11.4921 23.9298L12.3277 24.0418L12.1285 23.9073L12.4044 25.2214C14.1864 22.4235 15.9706 19.5545 17.3852 16.4623C18.0969 14.917 18.7104 13.328 19.2218 11.7047C19.7295 10.0811 20.1402 8.42854 20.4516 6.75576L19.6769 7.55298C22.1062 7.0441 24.5712 6.72652 27.0497 6.60313C28.2861 6.54377 29.5231 6.55189 30.7572 6.59956C31.9898 6.66792 33.2202 6.77379 34.4393 6.9567C39.7437 7.73364 44.8616 9.78019 49.1204 13.0347C51.2579 14.6559 53.1818 16.5432 54.8459 18.6513C56.5156 20.7644 57.9377 23.0635 59.084 25.5032C61.3949 30.384 62.6397 35.759 62.9634 41.1758C63.2544 46.6219 62.698 52.0803 61.3142 57.3542L61.3128 57.3595C61.2706 57.5229 61.2726 57.6947 61.3187 57.8571C61.3648 58.0195 61.4532 58.1666 61.5748 58.2832C61.6964 58.3998 61.8468 58.4816 62.0105 58.5203C62.1741 58.5589 62.3451 58.553 62.5057 58.503C64.1607 57.9673 65.7734 57.3075 67.33 56.5292C68.8754 55.776 70.3779 54.9619 71.8615 54.1257L70.5747 52.8592C70.0387 53.8652 69.4986 54.869 68.9543 55.8706C68.4081 56.8712 67.8576 57.8693 67.3026 58.8651C65.2617 62.5185 63.1889 66.2018 61.0935 69.7669C60.0885 71.4731 59.2879 72.8959 58.6592 74.0781C58.3472 74.6708 58.0734 75.2002 57.8443 75.6784C57.731 75.9161 57.6159 76.1532 57.5522 76.322C57.479 76.5065 57.4152 76.692 57.348 76.879C56.9526 78.0027 56.6723 78.2936 57.514 77.5648C57.7948 77.3058 58.0541 77.0242 58.2891 76.7227C58.4089 76.568 58.5381 76.401 58.6767 76.2217L59.0901 75.6678C59.6685 74.8786 60.3523 73.8858 61.1191 72.7013C63.063 69.7052 65.0675 66.3537 66.8875 63.14C68.6637 60.0021 70.3921 56.8433 72.0728 53.6636L72.0747 53.6601C72.1692 53.4813 72.1891 53.2722 72.1301 53.0787C72.0711 52.8852 71.938 52.7232 71.7601 52.6283C71.6472 52.5689 71.5214 52.5386 71.394 52.5403C71.2666 52.5419 71.1417 52.5754 71.0303 52.6376C69.5662 53.4675 68.0906 54.2694 66.5913 55.0013C65.1146 55.7417 63.5842 56.3689 62.0133 56.8776L62.9512 57.7819C64.2039 52.8938 64.8811 47.8427 64.7821 42.7812C64.6908 37.7257 63.8532 32.658 62.1307 27.8663C61.9351 27.3018 61.7097 26.7451 61.4886 26.1843C61.3757 25.9049 61.252 25.6292 61.1338 25.3509L60.9539 24.934L60.7614 24.5222C60.2534 23.4176 59.6894 22.3398 59.0714 21.2932C58.4607 20.249 57.7926 19.2397 57.0704 18.2699C56.3657 17.3157 55.6056 16.404 54.7941 15.5397C50.3598 10.7805 44.6549 7.40435 38.3612 5.81482C36.8016 5.41651 35.2177 5.12124 33.6197 4.93091C32.0245 4.74543 30.4198 4.65518 28.814 4.66063C27.2119 4.66314 25.6113 4.75465 24.0193 4.93475C22.43 5.11626 20.8525 5.37558 19.2902 5.69936C19.1173 5.73517 18.959 5.82199 18.8356 5.94869C18.7122 6.0754 18.6292 6.23623 18.5973 6.41058V6.41239C18.2566 8.30153 17.7811 10.1636 17.1746 11.9843L16.8978 12.7936C16.8013 13.0619 16.6965 13.3274 16.5963 13.5945L16.4443 13.9946L16.2801 14.3902L15.9487 15.1805C15.4873 16.2269 14.9834 17.2568 14.4464 18.2737C13.9015 19.2871 13.3294 20.2902 12.73 21.2829C12.1289 22.2754 11.5109 23.2634 10.886 24.2526C10.7683 24.4392 10.7279 24.6645 10.7733 24.8806C10.8186 25.0967 10.9462 25.2865 11.1288 25.4095L11.3284 25.5434C11.4357 25.6147 11.5577 25.6606 11.6852 25.6777C11.8126 25.6948 11.9423 25.6826 12.0645 25.6421C14.8686 24.6922 17.7808 24.1008 20.7321 23.882C23.679 23.6634 26.6418 23.8417 29.5416 24.412C30.0036 24.4847 30.4543 24.6085 30.9075 24.7207L31.5872 24.8901C31.7002 24.9195 31.8146 24.944 31.9265 24.9772L32.2602 25.083L33.5959 25.5054C34.0352 25.6628 34.4677 25.8393 34.9043 26.0049C35.1205 26.0926 35.3434 26.165 35.5543 26.265L36.1903 26.5581L36.8266 26.8509C36.9322 26.9004 37.0396 26.9467 37.144 26.9988L37.452 27.1653L38.6848 27.8303C39.0848 28.0705 39.4774 28.3236 39.8744 28.5693C40.2778 28.8057 40.6501 29.0882 41.0299 29.3598C41.4067 29.6354 41.7971 29.8934 42.1489 30.2014L43.2294 31.0931L44.25 32.0531L44.5054 32.2929C44.5891 32.3742 44.6655 32.4629 44.7459 32.5475L45.2232 33.0605L45.7008 33.5734C45.8607 33.7437 45.9986 33.9332 46.1486 34.1122C46.4395 34.4777 46.7458 34.8316 47.0248 35.2063L47.8327 36.3526C47.8987 36.449 47.9707 36.5415 48.0319 36.6411L48.2136 36.9411L48.5775 37.5409L48.9418 38.1405C49.0551 38.345 49.1578 38.5555 49.2664 38.7627L49.5884 39.3864L49.7496 39.6982L49.8298 39.8543L49.8992 40.0156L50.4555 41.3056C50.5007 41.4136 50.5513 41.5195 50.5921 41.6292L50.7083 41.9609L50.9412 42.6241L51.1746 43.2874C51.253 43.5082 51.3033 43.7382 51.3691 43.9631L51.7408 45.3205L52.0203 46.7012L52.0904 47.0463C52.1165 47.1608 52.1363 47.2767 52.1499 47.3934L52.2422 48.0923L52.335 48.7914C52.3641 49.0246 52.4042 49.2567 52.412 49.4923C52.4668 50.4317 52.5588 51.3698 52.5291 52.3134C52.5648 54.1997 52.3417 56.0815 52.0833 57.9523L52.75 57.3971C52.0114 57.3539 51.2778 57.2482 50.557 57.0809C49.8104 56.9207 49.0626 56.729 48.317 56.5239C46.8254 56.1121 45.3412 55.6447 43.8647 55.153C43.7354 55.11 43.5956 55.1105 43.4666 55.1545C43.3376 55.1985 43.2265 55.2836 43.15 55.3968C43.0735 55.51 43.0359 55.6452 43.0429 55.7819C43.0498 55.9185 43.101 56.0491 43.1886 56.1539L43.1982 56.1652C43.6909 56.752 44.204 57.3201 44.666 57.9352C47.0097 60.9173 48.9168 64.1187 50.7165 67.202C52.5066 70.2939 54.1864 73.2939 55.9293 76.0171C56.1258 76.3303 56.3073 76.6059 56.4563 76.8114C56.6044 77.02 56.7136 77.1757 56.7914 77.2907C56.9467 77.5206 56.9876 77.5816 56.9727 77.4701C56.9664 77.4339 56.9499 77.3388 56.9226 77.1814C56.8999 77.0479 56.8828 76.8799 56.8617 76.7105C56.8513 76.6238 56.8342 76.538 56.8107 76.454C56.7756 76.3417 56.7304 76.233 56.6754 76.1291C56.6036 75.9817 56.5263 75.823 56.4435 75.6529L56.3118 75.3912C56.2887 75.3464 56.2653 75.3009 56.2415 75.2548L56.2235 75.22C56.2328 75.1999 56.2164 75.194 56.2141 75.1802L56.1799 75.1081C55.922 74.5579 55.6689 74.0001 55.4138 73.4405C55.1564 72.8804 54.8729 72.3326 54.6029 71.7715C54.054 70.6551 53.5081 69.5233 52.9341 68.3933C51.7873 66.1346 50.5891 63.8579 49.2517 61.6496C47.8532 59.3072 46.2512 57.0936 44.4644 55.0347L43.3244 56.7661C44.8275 57.2691 46.3411 57.7475 47.8747 58.1776C47.8835 58.1917 47.893 58.2053 47.9031 58.2184Z" fill="black"/>
</g>
</svg>
