<svg width="83" height="84" viewBox="0 0 83 84" fill="none" xmlns="http://www.w3.org/2000/svg">
<g opacity="0.25">
<path d="M47.9031 58.2183C48.6637 58.4243 49.4305 58.6182 50.2169 58.7841C50.6108 58.8664 51.0076 58.9438 51.4198 59.0034L51.7285 59.0484L52.0485 59.0823C52.2561 59.1091 52.4917 59.1131 52.7146 59.125C52.9655 59.1384 53.2125 59.0584 53.4083 58.9002C53.6041 58.7421 53.7349 58.5169 53.7756 58.2679L53.7804 58.2374C54.3132 54.9595 54.3769 51.6219 53.9696 48.3259L53.8013 47.0915C53.7344 46.6818 53.6387 46.2764 53.5585 45.8689L53.4324 45.2586L53.3693 44.9535C53.3484 44.8518 53.3156 44.7527 53.2893 44.6523L52.9545 43.451C52.8969 43.2514 52.8464 43.0496 52.7828 42.8519L52.5746 42.2639L52.1573 41.0889C52.0056 40.7021 51.8302 40.3246 51.6674 39.9422C51.4966 39.5634 51.3499 39.1735 51.1468 38.81L50.3883 37.3547L49.5331 35.9531C49.3969 35.7154 49.2336 35.4953 49.076 35.2717L48.6017 34.6017L48.3645 34.2668L48.2459 34.0995L48.1165 33.9403L47.5989 33.3038L47.0811 32.6677C46.905 32.4588 46.7119 32.265 46.5281 32.063L45.9702 31.4629L45.6911 31.1633L45.3936 30.8822C44.9948 30.51 44.6054 30.1274 44.1996 29.7641L42.9434 28.7201C38.5929 25.2671 33.2853 23.1205 27.8218 22.3526C25.085 21.9703 22.3125 21.9174 19.5632 22.1951C16.8177 22.4751 14.1112 23.0567 11.4921 23.9296L12.3277 24.0417L12.1285 23.9072L12.4044 25.2213C14.1864 22.4234 15.9706 19.5543 17.3852 16.4621C18.0969 14.9169 18.7104 13.3278 19.2218 11.7046C19.7295 10.081 20.1402 8.42842 20.4516 6.75564L19.6769 7.55285C22.1062 7.04398 24.5712 6.7264 27.0497 6.60301C28.2861 6.54365 29.5231 6.55177 30.7572 6.59944C31.9898 6.6678 33.2202 6.77367 34.4393 6.95658C39.7437 7.73352 44.8616 9.78007 49.1204 13.0346C51.2579 14.6558 53.1818 16.5431 54.8459 18.6512C56.5156 20.7643 57.9377 23.0634 59.084 25.5031C61.3949 30.3839 62.6397 35.7589 62.9634 41.1757C63.2544 46.6218 62.698 52.0802 61.3142 57.354L61.3128 57.3593C61.2706 57.5228 61.2726 57.6946 61.3187 57.857C61.3648 58.0194 61.4532 58.1665 61.5748 58.2831C61.6964 58.3997 61.8468 58.4815 62.0105 58.5202C62.1741 58.5588 62.3451 58.5528 62.5057 58.5029C64.1607 57.9672 65.7734 57.3074 67.33 56.5291C68.8754 55.7759 70.3779 54.9618 71.8615 54.1255L70.5747 52.8591C70.0387 53.8651 69.4986 54.8688 68.9543 55.8705C68.4081 56.871 67.8576 57.8692 67.3026 58.865C65.2617 62.5184 63.1889 66.2016 61.0935 69.7668C60.0885 71.473 59.2879 72.8957 58.6592 74.078C58.3472 74.6707 58.0734 75.2 57.8443 75.6783C57.731 75.916 57.6159 76.1531 57.5522 76.3219C57.479 76.5064 57.4152 76.6919 57.348 76.8789C56.9526 78.0026 56.6723 78.2935 57.514 77.5647C57.7948 77.3057 58.0541 77.0241 58.2891 76.7226C58.4089 76.5679 58.5381 76.4009 58.6767 76.2216L59.0901 75.6677C59.6685 74.8785 60.3523 73.8857 61.1191 72.7011C63.063 69.7051 65.0675 66.3535 66.8875 63.1399C68.6637 60.0019 70.3921 56.8432 72.0728 53.6635L72.0747 53.66C72.1692 53.4812 72.1891 53.2721 72.1301 53.0786C72.0711 52.8851 71.938 52.7231 71.7601 52.6281C71.6472 52.5688 71.5214 52.5385 71.394 52.5402C71.2666 52.5418 71.1417 52.5752 71.0303 52.6375C69.5662 53.4673 68.0906 54.2693 66.5913 55.0012C65.1146 55.7415 63.5842 56.3688 62.0133 56.8775L62.9512 57.7818C64.2039 52.8937 64.8811 47.8426 64.7821 42.7811C64.6908 37.7255 63.8532 32.6579 62.1307 27.8661C61.9351 27.3017 61.7097 26.745 61.4886 26.1842C61.3757 25.9048 61.252 25.6291 61.1338 25.3507L60.9539 24.9339L60.7614 24.5221C60.2534 23.4174 59.6894 22.3397 59.0714 21.2931C58.4607 20.2489 57.7926 19.2396 57.0704 18.2698C56.3657 17.3156 55.6056 16.4039 54.7941 15.5396C50.3598 10.7804 44.6549 7.40423 38.3612 5.8147C36.8016 5.41639 35.2177 5.12112 33.6197 4.93079C32.0245 4.74531 30.4198 4.65506 28.814 4.66051C27.2119 4.66301 25.6113 4.75453 24.0193 4.93462C22.43 5.11614 20.8525 5.37546 19.2902 5.69924C19.1173 5.73505 18.959 5.82186 18.8356 5.94857C18.7122 6.07528 18.6292 6.2361 18.5973 6.41046V6.41227C18.2566 8.30141 17.7811 10.1635 17.1746 11.9842L16.8978 12.7935C16.8013 13.0618 16.6965 13.3273 16.5963 13.5944L16.4443 13.9945L16.2801 14.3901L15.9487 15.1804C15.4873 16.2267 14.9834 17.2567 14.4464 18.2735C13.9015 19.287 13.3294 20.2901 12.73 21.2827C12.1289 22.2753 11.5109 23.2633 10.886 24.2525C10.7683 24.4391 10.7279 24.6644 10.7733 24.8805C10.8186 25.0966 10.9462 25.2864 11.1288 25.4094L11.3284 25.5433C11.4357 25.6146 11.5577 25.6605 11.6852 25.6776C11.8126 25.6947 11.9423 25.6825 12.0645 25.6419C14.8686 24.692 17.7808 24.1007 20.7321 23.8819C23.679 23.6633 26.6418 23.8416 29.5416 24.4119C30.0036 24.4845 30.4543 24.6084 30.9075 24.7206L31.5872 24.89C31.7002 24.9193 31.8146 24.9439 31.9265 24.9771L32.2602 25.0829L33.5959 25.5053C34.0352 25.6627 34.4677 25.8392 34.9043 26.0048C35.1205 26.0925 35.3434 26.1649 35.5543 26.2649L36.1903 26.558L36.8266 26.8508C36.9322 26.9003 37.0396 26.9466 37.144 26.9987L37.452 27.1652L38.6848 27.8301C39.0848 28.0704 39.4774 28.3235 39.8744 28.5691C40.2778 28.8056 40.6501 29.0881 41.0299 29.3597C41.4067 29.6353 41.7971 29.8933 42.1489 30.2013L43.2294 31.093L44.25 32.053L44.5054 32.2928C44.5891 32.3741 44.6655 32.4628 44.7459 32.5473L45.2232 33.0604L45.7008 33.5732C45.8607 33.7436 45.9986 33.9331 46.1486 34.112C46.4395 34.4776 46.7458 34.8315 47.0248 35.2062L47.8327 36.3525C47.8987 36.4489 47.9707 36.5414 48.0319 36.641L48.2136 36.941L48.5775 37.5407L48.9418 38.1404C49.0551 38.3449 49.1578 38.5554 49.2664 38.7626L49.5884 39.3863L49.7496 39.6981L49.8298 39.8542L49.8992 40.0155L50.4555 41.3055C50.5007 41.4135 50.5513 41.5193 50.5921 41.6291L50.7083 41.9607L50.9412 42.624L51.1746 43.2872C51.253 43.5081 51.3033 43.7381 51.3691 43.963L51.7408 45.3204L52.0203 46.701L52.0904 47.0462C52.1165 47.1607 52.1363 47.2766 52.1499 47.3932L52.2422 48.0922L52.335 48.7913C52.3641 49.0245 52.4042 49.2566 52.412 49.4921C52.4668 50.4315 52.5588 51.3697 52.5291 52.3133C52.5648 54.1995 52.3417 56.0814 52.0833 57.9521L52.75 57.397C52.0114 57.3538 51.2778 57.2481 50.557 57.0808C49.8104 56.9206 49.0626 56.7288 48.317 56.5238C46.8254 56.1119 45.3412 55.6446 43.8647 55.1529C43.7354 55.1099 43.5956 55.1104 43.4666 55.1544C43.3376 55.1984 43.2265 55.2835 43.15 55.3967C43.0735 55.5099 43.0359 55.6451 43.0429 55.7817C43.0498 55.9184 43.101 56.049 43.1886 56.1538L43.1982 56.1651C43.6909 56.7518 44.204 57.32 44.666 57.9351C47.0097 60.9172 48.9168 64.1186 50.7165 67.2019C52.5066 70.2937 54.1864 73.2938 55.9293 76.017C56.1258 76.3302 56.3073 76.6058 56.4563 76.8112C56.6044 77.0199 56.7136 77.1756 56.7914 77.2906C56.9467 77.5204 56.9876 77.5814 56.9727 77.47C56.9664 77.4338 56.9499 77.3386 56.9226 77.1812C56.8999 77.0478 56.8828 76.8797 56.8617 76.7104C56.8513 76.6237 56.8342 76.5379 56.8107 76.4538C56.7756 76.3416 56.7304 76.2329 56.6754 76.129C56.6036 75.9816 56.5263 75.8228 56.4435 75.6527L56.3118 75.3911C56.2887 75.3463 56.2653 75.3008 56.2415 75.2547L56.2235 75.2199C56.2328 75.1998 56.2164 75.1939 56.2141 75.1801L56.1799 75.108C55.922 74.5578 55.6689 74 55.4138 73.4403C55.1564 72.8803 54.8729 72.3325 54.6029 71.7714C54.054 70.655 53.5081 69.5232 52.9341 68.3932C51.7873 66.1345 50.5891 63.8578 49.2517 61.6495C47.8532 59.3071 46.2512 57.0934 44.4644 55.0346L43.3244 56.766C44.8275 57.269 46.3411 57.7474 47.8747 58.1775C47.8835 58.1915 47.893 58.2052 47.9031 58.2183Z" fill="black"/>
</g>
</svg>
