<svg width="69" height="69" viewBox="0 0 69 69" fill="none" xmlns="http://www.w3.org/2000/svg">
<g opacity="0.5">
<path d="M35.8464 38.6576C38.1128 37.0661 40.7586 36.0878 43.5228 35.8194C44.2129 35.7553 44.9065 35.7343 45.5993 35.7566C46.3421 35.778 47.0771 35.9138 47.7779 36.159C48.1572 36.2995 48.5135 36.495 48.835 36.7391C49.193 37.0082 49.48 37.3591 49.6714 37.762C49.8667 38.1783 49.9511 38.6372 49.9167 39.095C49.8784 39.5381 49.7399 39.9668 49.5114 40.3495C49.3065 40.6956 49.0518 41.0101 48.7552 41.2832C48.4807 41.5381 48.1853 41.7699 47.872 41.9761C47.5681 42.1732 47.2528 42.3524 46.9277 42.5129L46.6845 42.6287L46.4508 42.7298L45.9842 42.9302C45.6729 43.0632 45.3623 43.198 45.043 43.3111L44.0911 43.6648C43.4466 43.8719 42.8069 44.0946 42.1512 44.2642C41.5023 44.4576 40.8392 44.5966 40.1809 44.7529C39.5155 44.8763 38.8534 45.0193 38.1817 45.105C37.5136 45.2145 36.8391 45.2745 36.1661 45.3447C35.8287 45.3688 35.4906 45.3853 35.1529 45.4058C34.984 45.4143 34.8154 45.4283 34.6462 45.4321L34.1388 45.4405L33.6008 45.4493L33.3318 45.4529L33.0627 45.4461L31.9864 45.4185C31.2701 45.37 30.5529 45.3324 29.84 45.2412C28.4113 45.0847 26.9957 44.828 25.6037 44.4729C24.8846 44.3092 24.1808 44.0854 23.4999 43.8038C23.1456 43.6558 22.8032 43.4811 22.4758 43.2814C22.1335 43.0766 21.8162 42.8335 21.53 42.5568C21.2327 42.2691 20.9782 41.941 20.7742 41.5822C20.5696 41.2169 20.4257 40.8213 20.3479 40.4107C20.2096 39.6167 20.2714 38.8011 20.5278 38.0365C20.6818 37.5479 20.8896 37.0775 21.1473 36.6338C21.2716 36.414 21.4091 36.2018 21.559 35.9983L22.007 35.4023C22.6431 34.6411 23.3707 33.96 24.1737 33.374C24.9798 32.814 25.838 32.3318 26.7368 31.934C27.6282 31.5532 28.5446 31.2327 29.4797 30.9747C30.4106 30.725 31.3503 30.5277 32.2933 30.3698C33.2368 30.2208 34.1816 30.1026 35.1276 30.0153C37.0085 29.8439 38.9222 29.7439 40.8534 29.8854C41.8254 29.9565 42.7903 30.1031 43.7393 30.3237C44.2168 30.433 44.6887 30.5741 45.1558 30.7296C45.3895 30.8091 45.6213 30.9026 45.8537 30.9894C46.0803 31.0909 46.3105 31.1851 46.5337 31.2936C47.432 31.7257 48.2734 32.2653 49.0392 32.9004C49.818 33.5397 50.4951 34.2917 51.0477 35.1312C52.1964 36.8487 52.6524 38.9313 52.3253 40.9664C52.1655 41.9566 51.8647 42.9193 51.432 43.8258C50.9995 44.7197 50.4599 45.5588 49.8251 46.3249C49.1898 47.0749 48.4821 47.7615 47.712 48.375C46.9526 48.9773 46.1513 49.5256 45.314 50.0159C44.4842 50.5037 43.6347 50.9468 42.7761 51.3537C42.3467 51.5579 41.9172 51.7569 41.4814 51.9417C41.046 52.1273 40.6149 52.3226 40.1759 52.5C38.4239 53.2237 36.6339 53.8534 34.8137 54.3865C32.9915 54.9244 31.1377 55.3506 29.2626 55.6627C27.3832 55.9695 25.4851 56.1506 23.5812 56.205C21.6739 56.2641 19.7648 56.1702 17.8728 55.9242C17.6352 55.9022 17.4003 55.8593 17.1647 55.8218L16.4582 55.7073C15.9871 55.6393 15.517 55.5338 15.0475 55.4374C14.1101 55.2229 13.1853 54.9572 12.2775 54.6414C11.3673 54.3172 10.4811 53.9306 9.62515 53.4843C8.76369 53.0312 7.94677 52.4995 7.18504 51.8959C6.23425 51.1466 5.40311 50.2592 4.71978 49.2638L4.47481 48.8813C4.38971 48.7559 4.31216 48.6257 4.24254 48.4914L4.03224 48.0887C3.95873 47.9562 3.89208 47.8202 3.83255 47.681C3.58468 47.1284 3.38481 46.5558 3.2351 45.9695C2.94191 44.8021 2.83121 43.597 2.90685 42.3963C2.98597 41.2066 3.21927 40.032 3.60099 38.9014C3.97872 37.7741 4.48479 36.6932 5.10941 35.6796C5.73618 34.6766 6.46025 33.7368 7.27131 32.8734C8.88061 31.1438 10.7601 29.7039 12.7335 28.4603C14.707 27.2153 16.7786 26.1303 18.9283 25.2159C21.0846 24.2959 23.325 23.5832 25.6186 23.0876C27.9275 22.5855 30.2912 22.3753 32.6533 22.4622C33.8401 22.5071 35.0212 22.6472 36.1852 22.8809C36.7669 23.0023 37.346 23.1379 37.917 23.304C38.202 23.3888 38.4884 23.4685 38.7688 23.5679L39.1914 23.7104C39.333 23.7608 39.4815 23.815 39.6229 23.874C40.194 24.1055 40.7432 24.3872 41.2637 24.7157C41.791 25.0458 42.2824 25.4292 42.73 25.8598C43.1964 26.3049 43.5906 26.8186 43.8989 27.383C44.2258 27.9847 44.3984 28.6569 44.4014 29.3403C44.3893 30.0307 44.1948 30.7058 43.8374 31.2984C43.499 31.8386 43.0837 32.3275 42.6045 32.7502C42.3802 32.9565 42.1544 33.1481 41.9232 33.3308L41.2337 33.8865L40.5169 34.4064C40.3963 34.4915 40.2801 34.5829 40.1558 34.6626L39.7846 34.9038C37.8089 36.1995 35.6541 37.2043 33.3874 37.8866L32.536 38.1295C32.2522 38.2104 31.9622 38.2679 31.6756 38.338L31.2446 38.4385C31.1005 38.4702 30.9545 38.4931 30.8096 38.5208L29.9384 38.678C28.7706 38.8534 27.5924 38.9519 26.4115 38.9731C26.1164 38.9801 25.8211 38.966 25.526 38.9634L25.0833 38.9552C24.9359 38.948 24.7887 38.9357 24.6414 38.9261C24.3467 38.9044 24.0527 38.888 23.7577 38.8617C23.462 38.8265 23.1656 38.7991 22.8716 38.749C22.2811 38.6608 21.696 38.5408 21.1187 38.3894C20.8316 38.3037 20.5412 38.232 20.2586 38.1289C20.1167 38.0798 19.9741 38.0334 19.833 37.9819L19.4136 37.8141C19.2729 37.7609 19.1357 37.6979 18.9992 37.6325C18.8626 37.5677 18.7249 37.506 18.5896 37.4383C18.3249 37.2894 18.0519 37.1578 17.7989 36.9859C17.2769 36.6626 16.7924 36.2834 16.3541 35.8552L16.034 35.5204C15.9259 35.4103 15.8375 35.2813 15.7388 35.1624C15.5469 34.9187 15.3708 34.6631 15.2117 34.3972C15.1349 34.2626 15.0684 34.1221 14.9968 33.9846L14.8918 33.7771C14.8594 33.7068 14.8322 33.6343 14.8023 33.563L14.7153 33.348L14.6416 33.1278C14.5891 32.9821 14.5497 32.8324 14.5114 32.6825C14.3606 32.0835 14.2901 31.4675 14.3017 30.8503C14.316 30.2408 14.3992 29.6348 14.5497 29.0437C14.8561 27.886 15.3413 26.7822 15.9881 25.7716C16.6186 24.7736 17.3489 23.8412 18.168 22.9885C18.5748 22.5634 18.9956 22.1506 19.4372 21.7624L20.7723 20.6353C22.9712 18.869 25.3718 17.3648 27.9247 16.1536C30.4581 14.9487 33.1163 14.0206 35.8523 13.3858C38.0111 12.8726 40.2177 12.5825 42.4368 12.5198C42.8856 12.5176 43.3094 12.5183 43.7083 12.5219L44.0031 12.525C44.0999 12.5275 44.1953 12.5364 44.2891 12.542L44.8346 12.5812C45.1864 12.608 45.5154 12.6361 45.8215 12.6655C46.1279 12.6972 46.4112 12.7524 46.6741 12.7946C48.204 13.0585 48.1657 13.2383 46.8487 13.2844C45.5351 13.3276 42.9163 13.2749 39.2742 13.8006C38.9865 13.8426 38.6961 13.879 38.4059 13.9254C38.1171 13.9805 37.8269 14.0358 37.5352 14.0914C37.2435 14.1465 36.9504 14.2018 36.6562 14.2574L35.7792 14.4662C35.4846 14.5311 35.1924 14.6098 34.8971 14.6797C34.6038 14.7573 34.3142 14.8509 34.0214 14.9357C33.7291 15.0224 33.4363 15.1093 33.1429 15.1964C32.8499 15.2846 32.564 15.3957 32.2735 15.4941C29.9611 16.2922 27.7318 17.3094 25.6165 18.5318L24.723 19.0596C24.5721 19.1445 24.4287 19.241 24.285 19.337L23.8528 19.6236L22.9882 20.1966L22.1554 20.8139L21.739 21.1226C21.5999 21.2252 21.4599 21.3267 21.3293 21.4398L20.531 22.1004C19.9956 22.53 19.4866 22.9911 19.0068 23.4811C18.5272 23.967 18.0767 24.4803 17.6575 25.0184C17.2381 25.5522 16.8573 26.1147 16.5178 26.7017C16.1787 27.282 15.8948 27.8925 15.6701 28.5251C15.4454 29.1484 15.3017 29.7976 15.2423 30.4569C15.1186 31.7644 15.451 33.0744 16.1842 34.1683C16.5489 34.7124 16.9957 35.1979 17.5091 35.6076C18.0342 36.0173 18.6037 36.3677 19.2072 36.6522C19.8175 36.941 20.4528 37.1747 21.1054 37.3504C21.7607 37.5336 22.4285 37.6698 23.1035 37.7581C23.2718 37.7851 23.4417 37.8007 23.6113 37.8185C23.7809 37.8369 23.9502 37.8556 24.1224 37.8627C24.4655 37.8817 24.8082 37.9065 25.1512 37.9211L26.1818 37.9293C26.5252 37.9241 26.8684 37.9024 27.2115 37.89C28.5834 37.8075 29.9457 37.6096 31.2838 37.2983L31.7838 37.1759C31.9503 37.1348 32.1178 37.0972 32.2813 37.0447L33.2672 36.7501L34.2377 36.4094C34.5592 36.2909 34.8736 36.154 35.1918 36.0275C36.4526 35.4925 37.6664 34.8548 38.8209 34.1211C39.1041 33.9304 39.3964 33.7525 39.6722 33.5517L40.4974 32.9461C41.0308 32.5328 41.5427 32.0929 42.031 31.628C42.4892 31.1677 42.865 30.6647 43.0406 30.1193C43.22 29.5683 43.2082 28.9737 43.007 28.4302C42.7865 27.8552 42.4442 27.3338 42.0033 26.901C41.5462 26.4413 41.0317 26.0413 40.4723 25.7107C39.909 25.3718 39.3097 25.0954 38.6853 24.8867C38.3625 24.7808 38.041 24.6712 37.7127 24.5827C37.3877 24.4837 37.0564 24.4065 36.7266 24.3247C36.0635 24.1752 35.3953 24.0443 34.7195 23.9598C34.3829 23.9101 34.0433 23.8802 33.7049 23.843C33.5355 23.8262 33.3651 23.8173 33.1953 23.8039C33.0253 23.7915 32.8555 23.778 32.6849 23.7736C29.6739 23.6292 26.5798 24.0777 23.6255 24.9174C20.7082 25.7634 17.8953 26.9293 15.2388 28.3937C13.1627 29.5269 11.1686 30.8137 9.41276 32.365C8.53663 33.1371 7.7303 33.9838 7.00301 34.8953C6.28038 35.8021 5.66738 36.7896 5.17654 37.8378C4.2064 39.9296 3.77039 42.2816 4.05874 44.546C4.20446 45.6743 4.55974 46.7662 5.10661 47.7662C5.65893 48.7652 6.37746 49.6646 7.23191 50.4264C8.09579 51.195 9.05489 51.8514 10.0861 52.3798C11.1255 52.9152 12.2127 53.3543 13.3336 53.6915C14.4597 54.0348 15.6106 54.2925 16.7761 54.4623L17.654 54.5936C17.9466 54.6366 18.2426 54.6564 18.5366 54.6891L19.42 54.7765L20.307 54.8244C22.6754 54.9393 25.0495 54.8352 27.3984 54.5132C29.7484 54.1815 32.0701 53.6766 34.3443 53.0026C35.1928 52.7632 36.0279 52.478 36.8642 52.1965L38.1078 51.7417C38.5217 51.5884 38.9289 51.4166 39.3398 51.2549C39.7519 51.0959 40.1553 50.9156 40.5607 50.7399C40.9666 50.565 41.3716 50.3882 41.7719 50.2028C42.5718 49.8324 43.3575 49.4416 44.1186 49.0166C45.6361 48.165 47.0617 47.167 48.2264 45.9322C48.5161 45.6268 48.789 45.3062 49.0439 44.9717C49.2945 44.6353 49.5258 44.2853 49.7368 43.9232C50.1603 43.2054 50.4856 42.435 50.7043 41.6322C50.9216 40.8426 51.0093 40.0235 50.9638 39.2062C50.9092 38.3982 50.7086 37.6064 50.3718 36.8686C50.0287 36.1212 49.5665 35.4335 49.003 34.8318C48.4337 34.2189 47.7885 33.6797 47.0828 33.2271C46.3739 32.7701 45.6145 32.3951 44.8194 32.1096C44.0121 31.8242 43.1802 31.6124 42.3341 31.4769C40.6324 31.1954 38.876 31.1708 37.1165 31.2615C36.333 31.3032 35.5398 31.3626 34.7579 31.4431C34.3652 31.4771 33.9765 31.5302 33.586 31.575C33.1973 31.6274 32.8091 31.6828 32.4227 31.7449C30.8865 31.9823 29.3783 32.3718 27.9205 32.9075C27.5651 33.0519 27.2044 33.1867 26.8638 33.3583C26.6927 33.4423 26.5147 33.5154 26.3489 33.6079L25.8501 33.8835C25.6798 33.9695 25.5257 34.0788 25.3662 34.18C25.209 34.2845 25.0448 34.3802 24.8929 34.4913C24.5877 34.7102 24.2943 34.9452 24.0143 35.1951C23.8769 35.322 23.7319 35.4419 23.6001 35.574L23.2189 35.9841C23.1567 36.0535 23.0882 36.1179 23.031 36.1914L22.8608 36.413L22.5203 36.8558C22.102 37.444 21.7974 38.104 21.622 38.8023C21.447 39.4545 21.4882 40.1452 21.7395 40.7724C21.9998 41.373 22.5019 41.8605 23.1149 42.2317C24.3491 42.98 25.933 43.289 27.461 43.6045C30.547 44.1958 33.7063 44.3126 36.8281 43.9507C38.3877 43.7771 39.9321 43.4883 41.4483 43.0867C41.8249 42.9782 42.2055 42.8826 42.579 42.764L43.6966 42.399L44.7973 41.987C45.1615 41.843 45.5191 41.6832 45.8812 41.5339C45.9705 41.4956 46.0639 41.4586 46.1499 41.4193L46.4033 41.2996C46.5706 41.2167 46.7338 41.1278 46.8945 41.0353C47.2091 40.8532 47.5052 40.6412 47.7784 40.4023C48.0346 40.1826 48.2518 39.9219 48.4209 39.6309C48.571 39.3726 48.6396 39.0757 48.6178 38.7784C48.5943 38.4854 48.4827 38.2061 48.2976 37.9766C48.091 37.7238 47.8309 37.519 47.5359 37.3765C47.2132 37.2169 46.8721 37.097 46.5201 37.0195C46.4299 36.999 46.339 36.9852 46.2493 36.9584C46.1571 36.9463 46.0655 36.9303 45.9728 36.9211C45.7865 36.9004 45.6038 36.8861 45.4125 36.8812C42.2818 36.7904 39.2019 37.6808 36.6112 39.4257C36.2926 39.6462 35.9739 39.8721 35.6882 40.1134C35.4012 40.3594 35.1323 40.6256 34.8837 40.9099C34.6408 41.1945 34.422 41.4985 34.2293 41.8187C34.0473 42.1346 33.903 42.4704 33.7992 42.8194C33.7065 43.1561 33.6782 43.507 33.7157 43.854C33.7315 43.9375 33.7363 44.0237 33.7588 44.1056L33.8329 44.3496C33.8614 44.4296 33.9047 44.5045 33.9388 44.5827C33.9737 44.6608 34.0152 44.7359 34.0629 44.8071C34.4407 45.3843 35.0887 45.7903 35.7899 46.0795C36.0715 46.1957 36.3598 46.3015 36.659 46.3927C36.958 46.4818 37.2522 46.5852 37.5536 46.6628C38.153 46.8285 38.7564 46.9696 39.3635 47.086C40.5692 47.3133 41.7906 47.4486 43.0172 47.4907C45.4151 47.5559 47.8129 47.3525 50.1648 46.8843C54.7913 45.9801 59.0718 44.4276 63.0334 42.8456C64.8536 42.1077 65.7157 41.7842 65.6223 41.9242C65.5246 42.0555 64.4797 42.6645 62.4104 43.6443C61.6761 43.9868 60.9337 44.3253 60.181 44.6539C59.806 44.8214 59.4227 44.9719 59.0395 45.1261C58.6572 45.2822 58.2695 45.4283 57.8823 45.5785C56.3289 46.1666 54.7376 46.7109 53.1052 47.1618C52.2865 47.3788 51.4632 47.591 50.627 47.7613C50.2113 47.8557 49.7888 47.9248 49.3695 48.0074C48.9463 48.0727 48.5256 48.153 48.0993 48.2047C47.2506 48.3303 46.392 48.4026 45.5327 48.4604C44.6719 48.5022 43.8084 48.5231 42.9448 48.4897C41.5128 48.4457 40.0879 48.2705 38.6885 47.9664C38.3371 47.8874 37.9846 47.8118 37.6377 47.7115L37.1152 47.5698L36.5985 47.4063C35.873 47.2002 35.1758 46.9062 34.5228 46.5312C34.1679 46.3228 33.8445 46.0656 33.5624 45.7673C33.4172 45.6087 33.2872 45.4372 33.174 45.2548C33.1164 45.1631 33.0654 45.0676 33.0213 44.9689C32.9712 44.8729 32.9274 44.7738 32.89 44.6723C32.7444 44.2646 32.6767 43.8336 32.6903 43.4013C32.7148 42.989 32.7977 42.5821 32.9365 42.1926C33.0711 41.822 33.2446 41.4664 33.4542 41.1317C33.6562 40.8051 33.8835 40.4947 34.1343 40.2033C34.2629 40.0634 34.3847 39.9164 34.522 39.7855L34.7237 39.5848L34.9352 39.3944C35.0733 39.2644 35.227 39.1511 35.3731 39.0298L35.8156 38.7042C35.8249 38.6892 35.8339 38.6751 35.8464 38.6576Z" fill="black"/>
</g>
</svg>
