<svg width="64" height="64" viewBox="0 0 64 64" fill="none" xmlns="http://www.w3.org/2000/svg">
<path d="M10.9 48.7C14.9 44.7 15.3 43.7 17.8 46.2C20.3 48.7 19.3 49 15.3 53.1C12.3 56.1 8.50003 55.5 8.50003 55.5C8.50003 55.5 7.90003 51.7 10.9 48.7Z" fill="#FF9D27"/>
<path d="M18.5 52.8C20.1 48.6 20.6 48.1 18.3 46.8C16 45.5 16 46.4 14.5 50.6C13.3 53.7 14.7 56.5 14.7 56.5C14.7 56.5 17.4 56 18.5 52.8Z" fill="#FF9D27"/>
<path d="M16.2 48.9C17.1 46.6 17.1 46.1 18.3 46.8C19.6 47.5 19.3 47.8 18.4 50.1C17.8 51.8 16.3 52.2 16.3 52.2C16.3 52.2 15.6 50.7 16.2 48.9Z" fill="#FDF516"/>
<path d="M17.1 45.7C15.8 43.4 15.3 43.9 11.1 45.5C8.00002 46.7 7.40002 49.3 7.40002 49.3C7.40002 49.3 10.2 50.7 13.3 49.5C17.5 47.9 18.4 47.9 17.1 45.7Z" fill="#FF9D27"/>
<path d="M15 47.8C17.3 46.9 17.8 46.9 17.1 45.7C16.4 44.4 16.1 44.7 13.8 45.6C12.1 46.2 11.7 47.7 11.7 47.7C11.7 47.7 13.3 48.4 15 47.8Z" fill="#FDF516"/>
<path d="M13.9 47.6C16.1 45.4 16.3 44.8 17.7 46.2C19.1 47.6 18.5 47.8 16.3 50C14.6 51.7 12.5 51.3 12.5 51.3C12.5 51.3 12.3 49.3 13.9 47.6Z" fill="#FDF516"/>
<path d="M18.5 38C12.3 27.6 2 31.9 2 31.9C2 31.9 16.7 17.2 26.6 27.1L18.5 38Z" fill="#3BAACF"/>
<path d="M23.3 30.3L26.5 27.1C16.7 17.2 2 31.9 2 31.9C2 31.9 14.9 22.7 23.3 30.3Z" fill="#428BC1"/>
<path d="M26 45.5C36.4 51.7 32.1 62 32.1 62C32.1 62 46.8 47.3 36.9 37.4L26 45.5Z" fill="#3BAACF"/>
<path d="M33.7 40.7L36.9 37.5C46.8 47.4 32.1 62.1 32.1 62.1C32.1 62.1 41.3 49.1 33.7 40.7Z" fill="#428BC1"/>
<path d="M48.8 30.9C37.1 42.5 24.2 48.8 19.7 44.3C15.2 39.8 21.5 26.9 33.1 15.2C46.7 1.59999 61.8 2.19999 61.8 2.19999C61.8 2.19999 62.3 17.3 48.8 30.9Z" fill="#C5D0D8"/>
<path d="M45.8 27.6C34.2 39.2 22.6 46.8 19.9 44.1C17.2 41.4 24.8 29.8 36.4 18.2C50 4.6 62 2 62 2C62 2 59.4 14 45.8 27.6Z" fill="#DAE3EA"/>
<path d="M24.3 47.5C23.8 48 23 48 22.5 47.5L16.5 41.5C16 41 16 40.1 16.5 39.6L18.3 37.8L26.1 45.6L24.3 47.5Z" fill="#C94747"/>
<path d="M22.6 45.7C22.1 46.2 21.5 46.4 21.2 46.1L17.8 42.7C17.5 42.4 17.7 41.8 18.2 41.3L20 39.5L24.4 43.9L22.6 45.7Z" fill="#F15744"/>
<path d="M20.9 48.2C20.6 48.5 19.9 48.5 19.6 48.2L15.7 44.3C15.4 44 15.5 43.4 15.8 43.1L17 41.9L22.1 47L20.9 48.2Z" fill="#3E4347"/>
<path d="M20.1 47.4C19.8 47.7 19.2 47.8 19 47.6L16.3 44.9C16.1 44.7 16.2 44.2 16.6 43.9L17.8 42.7L21.3 46.2L20.1 47.4Z" fill="#62727A"/>
<path d="M61.8 2.20002C61.8 2.20002 56.4 2.00002 49.1 4.80002L59.2 14.9C62 7.60002 61.8 2.20002 61.8 2.20002Z" fill="#C94747"/>
<path d="M61.8 2.20001C61.8 2.20001 57.5 3.10001 51 6.80001L57.2 13C60.9 6.50001 61.8 2.20001 61.8 2.20001Z" fill="#F15744"/>
<path d="M43.5 25.5C46.2614 25.5 48.5 23.2614 48.5 20.5C48.5 17.7386 46.2614 15.5 43.5 15.5C40.7386 15.5 38.5 17.7386 38.5 20.5C38.5 23.2614 40.7386 25.5 43.5 25.5Z" fill="#EDF4F9"/>
<path d="M43.5 23.8C45.3226 23.8 46.8 22.3226 46.8 20.5C46.8 18.6775 45.3226 17.2 43.5 17.2C41.6775 17.2 40.2 18.6775 40.2 20.5C40.2 22.3226 41.6775 23.8 43.5 23.8Z" fill="#3BAACF"/>
<path d="M33.5 35.5C36.2614 35.5 38.5 33.2614 38.5 30.5C38.5 27.7386 36.2614 25.5 33.5 25.5C30.7386 25.5 28.5 27.7386 28.5 30.5C28.5 33.2614 30.7386 35.5 33.5 35.5Z" fill="#EDF4F9"/>
<path d="M33.5 33.8C35.3226 33.8 36.8 32.3226 36.8 30.5C36.8 28.6775 35.3226 27.2 33.5 27.2C31.6775 27.2 30.2 28.6775 30.2 30.5C30.2 32.3226 31.6775 33.8 33.5 33.8Z" fill="#3BAACF"/>
<path d="M48.9 6.89998C48.6 7.19998 48 7.19998 47.7 6.89998C47.4 6.59998 47.4 5.99998 47.7 5.69998C48 5.39998 48.6 5.39998 48.9 5.69998C49.2 5.99998 49.2 6.59998 48.9 6.89998Z" fill="white"/>
<path d="M50.6 9.39999C51.0418 9.39999 51.4 9.04182 51.4 8.59999C51.4 8.15816 51.0418 7.79999 50.6 7.79999C50.1582 7.79999 49.8 8.15816 49.8 8.59999C49.8 9.04182 50.1582 9.39999 50.6 9.39999Z" fill="white"/>
<path d="M53 11.8C53.4418 11.8 53.7999 11.4418 53.7999 11C53.7999 10.5581 53.4418 10.2 53 10.2C52.5581 10.2 52.2 10.5581 52.2 11C52.2 11.4418 52.5581 11.8 53 11.8Z" fill="white"/>
<path d="M55.3 14.2C55.7418 14.2 56.1 13.8418 56.1 13.4C56.1 12.9581 55.7418 12.6 55.3 12.6C54.8582 12.6 54.5 12.9581 54.5 13.4C54.5 13.8418 54.8582 14.2 55.3 14.2Z" fill="white"/>
<path d="M57.7 16.5C58.1418 16.5 58.5 16.1418 58.5 15.7C58.5 15.2581 58.1418 14.9 57.7 14.9C57.2581 14.9 56.9 15.2581 56.9 15.7C56.9 16.1418 57.2581 16.5 57.7 16.5Z" fill="white"/>
</svg>
