<svg width="128" height="126" viewBox="0 0 128 126" fill="none" xmlns="http://www.w3.org/2000/svg">
<g opacity="0.5">
<path d="M81.8483 24.8395L46.4975 97.766M46.4975 1.83942C44.5124 2.30181 42.753 2.9159 41.3061 3.57959L2 83.6751C3.54033 83.6246 5.04048 83.6262 6.5004 83.6751M46.4975 1.83942C56.8355 -0.568664 73.2924 1.13762 83.5788 21.3786C93.0379 20.5837 114.198 22.9326 125.624 38.1887M46.4975 1.83942L6.5004 83.6751M6.5004 83.6751C27.9085 84.3919 40.6627 95.2712 44.5198 100.98C69.761 99.9132 85.0433 112.88 91.0489 121.498M125.624 38.1887C126.043 38.7481 126.449 39.3247 126.84 39.9192L92.7255 124.217C92.2835 123.383 91.725 122.468 91.0489 121.498M125.624 38.1887L91.0489 121.498M46.4975 12.2319C50.3704 12.8911 59.204 15.6434 63.5549 21.3786L53.6666 39.9192L36.362 32.7502L46.4975 12.2319ZM74.1848 66.3705L63.5549 87.3832C69.9725 88.7017 84.2474 92.8712 90.0062 99.002L99.8945 78.4837C96.928 75.1052 87.633 67.9526 74.1848 66.3705Z" stroke="black" stroke-width="1.48325"/>
<path d="M19.5518 75.0227C26.0616 75.5995 40.4656 79.0769 46.0031 88.372" stroke="black" stroke-width="1.48325"/>
<path d="M24.0016 66.3705C30.5114 66.9473 44.9154 70.4247 50.4529 79.7197" stroke="black" stroke-width="1.48325"/>
<path d="M28.4513 55.9877C34.9611 56.5645 49.3651 60.0419 54.9026 69.3369" stroke="black" stroke-width="1.48325"/>
<path d="M32.901 46.0994C39.4108 46.6762 53.8148 50.1536 59.3523 59.4486" stroke="black" stroke-width="1.48325"/>
<path d="M77.3986 55.9877C83.9084 56.5645 98.3124 60.0419 103.85 69.3369" stroke="black" stroke-width="1.48325"/>
<path d="M81.3539 46.0994C87.8637 46.6762 102.268 50.1536 107.805 59.4486" stroke="black" stroke-width="1.48325"/>
<path d="M85.8036 35.2222C92.3134 35.799 106.717 39.2764 112.255 48.5714" stroke="black" stroke-width="1.48325"/>
</g>
</svg>
