<svg width="156" height="149" viewBox="0 0 156 149" fill="none" xmlns="http://www.w3.org/2000/svg">
<g opacity="0.3">
<path d="M91.9795 7.34581C98.1428 25.228 111.218 61.8187 114.215 65.1243C117.96 69.2562 124.038 67.0161 124.595 63.1666C125.041 60.087 111.791 22.5278 105.11 4.13318M91.9795 7.34581C95.77 9.50865 102.313 6.10524 105.11 4.13318M91.9795 7.34581C94.0674 4.77132 99.6165 0.524515 105.11 4.13318" stroke="black" stroke-width="1.41294"/>
<path d="M14.5004 84.2876C21.8852 80.9104 36.6995 70.824 34.6999 57.9906L34.8537 52.1136M14.5004 84.2876C13.3616 84.3172 12.8005 83.5283 12.5546 82.7823C9.66364 73.5879 28.7635 58.0794 29.9716 57.3467C31.1797 56.614 33.3708 52.3933 34.1259 51.9353C34.7299 51.569 34.8628 51.9015 34.8537 52.1136M14.5004 84.2876C17.1022 86.3819 20.5212 89.0922 24.119 91.8805C32.7984 98.6069 42.5184 105.787 44.3175 105.864C47.4986 106 64.9345 97.2844 62.2616 83.0002C52.8574 73.6247 34.2099 54.3217 34.8537 52.1136" stroke="black" stroke-width="1.41294"/>
<path d="M24.078 91.9051C26.7492 90.9735 32.5224 87.9817 34.2456 83.4663" stroke="black" stroke-width="0.706471"/>
<path d="M29.2468 96.0001C31.918 95.0686 37.6912 92.0768 39.4144 87.5614" stroke="black" stroke-width="0.706471"/>
<path d="M34.9603 99.9712C37.6315 99.0397 43.4047 96.0478 45.1279 91.5324" stroke="black" stroke-width="0.706471"/>
<path d="M27.026 94.0422C28.4569 93.4498 31.7708 91.7842 33.5791 89.8613" stroke="black" stroke-width="0.706471"/>
<path d="M32.5884 98.1048C34.0193 97.5124 37.3332 95.8468 39.1415 93.9239" stroke="black" stroke-width="0.706471"/>
<path d="M99.3507 27.6406C101.041 28.0747 103.767 27.4631 106.879 25.7824" stroke="black" stroke-width="0.706471"/>
<path d="M100.967 34.1693C102.734 34.5965 105.698 34.2747 109.092 32.4959" stroke="black" stroke-width="0.706471"/>
<path d="M103.532 40.4656C105.298 40.8928 107.648 41.0145 110.911 39.2421" stroke="black" stroke-width="0.706471"/>
<path d="M100.535 30.9007C101.503 31.0472 103.818 31.1278 105.326 30.2781" stroke="black" stroke-width="0.706471"/>
<path d="M102.763 37.0789C103.732 37.2254 106.047 37.3059 107.555 36.4563" stroke="black" stroke-width="0.706471"/>
<path d="M65.2045 58.9064C65.6896 59.0253 75.7396 55.1609 76.4885 49.584C76.6093 48.6847 76.4784 48.0789 76.1617 47.7166M65.2045 58.9064C64.7193 58.7875 64.5955 58.2429 64.5955 58.2429C63.4141 53.9218 74.0232 45.2706 76.1617 47.7166M65.2045 58.9064C71.7487 65.6097 85.167 79.5601 86.4858 81.7347C88.1344 84.4529 100.53 117.834 103.135 117.701C105.739 117.567 131.607 98.5733 132.739 88.1784L97.4581 70.5357L76.1617 47.7166" stroke="black" stroke-width="1.41294"/>
<path d="M90.5578 90.8326C91.1619 90.4663 92.5512 89.6237 93.2761 89.184" stroke="black" stroke-width="0.706471"/>
<path d="M94.5432 100.809C96.2687 100.589 97.0238 100.131 97.7788 99.6729" stroke="black" stroke-width="0.706471"/>
<path d="M92.4364 95.2932C93.4243 95.1028 96.4643 93.8221 100.722 90.2225" stroke="black" stroke-width="0.706471"/>
<path d="M96.8766 105.951C97.8771 105.846 101.016 104.832 105.569 101.614" stroke="black" stroke-width="0.706471"/>
</g>
</svg>
