<svg width="161" height="111" viewBox="0 0 161 111" fill="none" xmlns="http://www.w3.org/2000/svg">
<g opacity="0.5">
<path d="M159.505 82.4129H160.06C160.06 82.3913 160.059 82.3698 160.056 82.3483L159.505 82.4129ZM149.268 89.0233L149.173 89.5701L149.268 89.0233ZM113.182 62.7757C116.054 60.9665 120.762 59.3101 125.542 60.177C130.273 61.0351 135.196 64.3888 138.515 72.8378L139.548 72.432C136.116 63.6939 130.917 60.0239 125.74 59.0848C120.61 58.1545 115.621 59.9273 112.59 61.8365L113.182 62.7757ZM139.445 73.0048C140.498 71.8271 142.135 71.1539 144.083 71.0005C146.028 70.8475 148.238 71.2184 150.357 72.0772C154.604 73.7987 158.362 77.4193 158.954 82.4774L160.056 82.3483C159.404 76.773 155.276 72.8733 150.774 71.0485C148.518 70.1343 146.136 69.7256 143.996 69.894C141.86 70.0621 139.917 70.8115 138.618 72.2651L139.445 73.0048ZM158.95 82.4129C158.95 83.9819 157.719 85.687 155.796 86.935C153.894 88.1699 151.476 88.8454 149.364 88.4766L149.173 89.5701C151.626 89.9984 154.326 89.2132 156.401 87.8659C158.456 86.5317 160.06 84.533 160.06 82.4129H158.95ZM149.364 88.4766C139.54 86.7612 136.422 78.269 139.512 72.9123L138.551 72.3576C135.001 78.5107 138.741 87.7486 149.173 89.5701L149.364 88.4766ZM138.973 73.1868C140.216 73.3194 142.222 73.7411 144.152 74.5702C146.093 75.4041 147.873 76.6139 148.782 78.2726L149.755 77.7392C148.672 75.7622 146.624 74.4241 144.59 73.5504C142.545 72.6718 140.429 72.2259 139.09 72.0831L138.973 73.1868Z" fill="black"/>
<path d="M2.10998 26.9735L77.1446 1V56.721M2.10998 26.9735V84.2485M2.10998 26.9735L1 83.8045C1.222 83.9525 1.71039 84.2485 1.88798 84.2485L2.10998 85.5804C2.28758 85.758 40.0713 101.934 58.9409 110C59.3849 110 131.312 78.4766 131.534 78.2546C131.711 78.077 131.756 77.2926 131.756 76.9226M77.1446 56.721L131.756 76.9226M77.1446 56.721L2.10998 84.2485M131.756 76.9226L59.1629 108.89L2.10998 84.2485" stroke="black" stroke-width="1.10998"/>
<path d="M59.1634 108.89C59.1634 109.26 59.119 110 58.9414 110" stroke="black" stroke-width="0.443992"/>
<path d="M8.10315 29.8598L73.592 6.77222V51.8374L8.10315 76.9229V34.9657" stroke="black" stroke-width="0.887984"/>
<path d="M46.5085 65.6008C46.5085 66.1829 45.9455 66.7108 45.1765 66.7108C44.4076 66.7108 43.8446 66.1829 43.8446 65.6008C43.8446 65.0186 44.4076 64.4908 45.1765 64.4908C45.9455 64.4908 46.5085 65.0186 46.5085 65.6008Z" fill="#C4C4C4" stroke="black" stroke-width="0.443992"/>
<path d="M78.6984 62.2708L22.5334 84.2483L52.9469 97.1241L108.668 74.0365L78.6984 62.2708Z" stroke="black" stroke-width="0.665988"/>
<path d="M71.9686 91.5259L93.3564 83.2707L101.517 86.0571L79.8149 95.2058L71.9686 91.5259Z" stroke="black" stroke-width="0.665988"/>
<line x1="30.3492" y1="83.259" x2="53.8808" y2="93.4708" stroke="black" stroke-width="0.221996"/>
<line x1="35.677" y1="81.039" x2="59.2086" y2="91.2509" stroke="black" stroke-width="0.221996"/>
<line x1="41.0049" y1="78.8188" x2="64.5364" y2="89.0306" stroke="black" stroke-width="0.221996"/>
<line x1="46.3327" y1="76.5993" x2="69.8642" y2="86.8112" stroke="black" stroke-width="0.221996"/>
<line x1="51.6605" y1="74.3791" x2="75.1921" y2="84.5909" stroke="black" stroke-width="0.221996"/>
<line x1="56.9883" y1="72.1592" x2="80.5199" y2="82.371" stroke="black" stroke-width="0.221996"/>
<line x1="62.3161" y1="69.9389" x2="85.8477" y2="80.1508" stroke="black" stroke-width="0.221996"/>
<line x1="67.6439" y1="67.7195" x2="91.1755" y2="77.9313" stroke="black" stroke-width="0.221996"/>
<line x1="72.9718" y1="65.4995" x2="96.5033" y2="75.7113" stroke="black" stroke-width="0.221996"/>
<line x1="33.8133" y1="85.0341" x2="79.9884" y2="65.9425" stroke="black" stroke-width="0.221996"/>
<line x1="37.8109" y1="86.3658" x2="83.9861" y2="67.7182" stroke="black" stroke-width="0.221996"/>
<line x1="41.8068" y1="88.1423" x2="87.982" y2="69.0507" stroke="black" stroke-width="0.221996"/>
<line x1="45.8021" y1="89.918" x2="92.4213" y2="70.8264" stroke="black" stroke-width="0.221996"/>
<line x1="49.7989" y1="91.6937" x2="96.4181" y2="72.602" stroke="black" stroke-width="0.221996"/>
<line x1="53.7934" y1="93.4702" x2="100.856" y2="73.9346" stroke="black" stroke-width="0.221996"/>
</g>
</svg>
