<svg width="140" height="168" viewBox="0 0 140 168" fill="none" xmlns="http://www.w3.org/2000/svg">
<path d="M66.4672 42.7818C9.23353 37.267 15.8049 107.153 53.6063 114.173C116.521 125.857 114.354 47.396 66.4672 42.7818Z" stroke="black" stroke-width="1.45441"/>
<path d="M56.2322 120.733C116.154 127.866 130.659 49.8898 67.8534 36.8995L66.934 42.5658M56.2322 120.733C54.794 127.636 52.0346 141.757 52.5026 143.013C53.0877 144.584 58.1446 146.635 60.5442 149.066C62.4638 151.011 60.2575 152.834 58.9143 153.503L38.4571 149.087C37.6282 149.234 36.1564 148.707 36.9003 145.416C37.8301 141.303 45.2482 143.253 46.7005 140.882C47.8623 138.984 48.9188 125.88 49.3019 119.564C50.5441 119.834 51.7693 120.068 52.9772 120.269M56.2322 120.733C55.1616 120.606 54.0766 120.451 52.9772 120.269M54.1184 114.361L52.9772 120.269" stroke="black" stroke-width="1.45441"/>
<path d="M64.7054 68.6686C62.9362 66.3143 57.8248 65.431 55.4903 65.2835L52.5091 64.9632L50.8409 66.8682C50.0422 67.285 48.2742 68.0558 47.5916 67.8051C46.909 67.5543 45.4892 69.486 44.8647 70.4832L46.3762 73.75C46.5689 74.9828 47.3618 77.2884 48.9917 76.6475C51.0291 75.8465 52.1888 77.4346 53.4286 78.2774C54.6685 79.1202 54.0695 81.8053 53.6934 82.8292C53.3925 83.6484 54.4317 85.0373 54.9889 85.6293L53.8606 88.701L55.0935 91.6717L54.989 95.1196C55.5764 95.981 56.814 97.5331 57.0647 96.8505C57.3781 95.9972 58.0155 95.844 58.5727 96.436C59.0185 96.9096 61.1034 95.1706 62.0902 94.2419L63.72 89.805L65.726 84.3441C66.4281 82.4328 69.0809 81.1865 70.3196 80.8022C71.2077 79.9663 72.7519 77.977 71.8241 76.7066C70.6643 75.1185 72.3883 75.1707 72.9525 73.6348L73.8928 71.0751L70.6782 70.8627C69.4245 71.1123 66.4747 71.0229 64.7054 68.6686Z" stroke="black" stroke-width="0.727203"/>
<path d="M86.3184 70.9912C85.5132 70.2306 83.7331 71.5264 82.9437 72.2694C81.7956 73.4616 79.3162 75.8175 78.5835 75.7033C77.6675 75.5605 78.2735 80.2378 79.7467 80.9726C81.2199 81.7074 80.5513 86.6911 81.5404 88.2165C82.5294 89.7419 82.9613 90.6753 84.5424 91.6435C86.1236 92.6116 87.844 88.9827 88.4082 87.4468C88.9724 85.9109 92.4376 85.4408 93.7297 84.5596C95.0217 83.6785 95.4396 79.3774 94.757 79.1266C94.0744 78.8759 93.2212 78.5625 92.6709 75.8425C92.1206 73.1225 88.5752 74.338 87.722 74.0246C86.8687 73.7112 87.3249 71.942 86.3184 70.9912Z" stroke="black" stroke-width="0.727203"/>
<path d="M56.1515 62.4276L53.0414 58.7673L50.6523 57.8897L50.802 54.8458C51.5403 53.8904 53.2148 52.2846 54.006 53.505C54.9951 55.0304 56.6703 50.9974 56.3638 49.7228C56.1186 48.703 56.9721 47.3638 57.4295 46.8217L60.3306 47.8874C61.2639 47.4555 63.5256 46.4657 65.1053 45.9614C66.685 45.4571 71.2244 47.7573 73.2966 48.9704C75.832 48.8171 77.2459 50.873 77.636 51.9202L79.1022 54.7829C83.0753 55.7775 83.2327 58.3015 82.8148 59.4392L83.7238 61.7099C83.5148 62.2787 82.6442 63.1726 80.8332 62.1975C79.0222 61.2224 76.9187 62.309 76.0933 62.9742L75.4037 64.8514L73.1852 64.0364C72.3866 64.4532 70.4764 64.9782 69.2255 63.7439C67.6617 62.2011 62.086 62.0897 60.8914 61.6509C59.9358 61.2998 57.3333 62.0224 56.1515 62.4276Z" stroke="black" stroke-width="0.727203"/>
<path d="M45.2199 47.3721C44.0915 46.6477 42.1354 48.5632 41.2984 49.6115L38.7596 51.7777C38.1013 51.9879 36.3489 52.7515 34.6048 54.1251C32.4246 55.8421 34.2601 59.8088 34.4655 58.7222C34.6299 57.853 36.9997 57.9746 38.1641 58.1441L41.4587 57.6112C42.1854 57.0389 43.6333 55.6985 43.611 54.9156C43.5887 54.1327 45.6007 54.4199 46.6096 54.6613C47.5127 53.9602 49.2508 52.5327 48.9778 52.4324C48.7047 52.3321 50.6819 50.6052 51.7047 49.7542L54.7207 48.9253L55.9744 45.5123L53.5853 44.6347L50.1827 44.9342L48.2359 46.5432C47.7007 47.1214 46.3483 48.0965 45.2199 47.3721Z" stroke="black" stroke-width="0.727203"/>
<path d="M36.2557 71.7753C35.9882 69.9726 32.9448 67.783 31.4566 66.9135L29.0883 69.1424L29.6317 73.9903C29.2265 75.9719 28.2658 80.3448 27.664 81.983C27.0622 83.6213 27.9612 86.0949 28.486 87.1269L30.7393 86.7926C31.5403 85.6665 33.2551 83.1072 33.7065 81.8785C34.2707 80.3427 37.2692 80.0884 39.5748 78.0301C41.4192 76.3835 40.5197 74.0517 39.8394 73.0917C38.7563 73.404 36.5232 73.5779 36.2557 71.7753Z" stroke="black" stroke-width="0.727203"/>
<path d="M129.993 32.9718L132 30.2495L134 33.1461L138.038 34.0673L135.288 36.4301L135.388 39.9696C134.917 39.7273 133.345 38.7002 132.618 38.217L127.362 40.1348C126.53 40.2095 128.189 37.6854 129.123 36.4141C129.19 36.2312 127.124 34.7862 126.083 34.0866C125.752 33.6536 128.552 33.163 129.993 32.9718Z" stroke="black" stroke-width="0.909004"/>
<path d="M115.652 39.3241L117.658 36.6018L119.658 39.4984L123.696 40.4196L120.946 42.7824L121.046 46.3219C120.575 46.0796 119.004 45.0525 118.277 44.5693L113.021 46.4871C112.188 46.5618 113.847 44.0377 114.781 42.7664C114.848 42.5835 112.782 41.1385 111.741 40.4389C111.41 40.0059 114.21 39.5153 115.652 39.3241Z" stroke="black" stroke-width="0.909004"/>
</svg>
