<svg width="64" height="64" viewBox="0 0 64 64" fill="none" xmlns="http://www.w3.org/2000/svg">
<path d="M35.12 50.3951L59.395 52.7051C61.68 52.9251 62.265 51.65 62.265 50.57L62.24 49.26L32.385 45.05C32.385 46.545 33.6 50.3951 35.12 50.3951Z" fill="#C62828"/>
<path d="M36.005 49.255L39.825 49.59L60.28 51.565C61.38 51.565 62.265 50.69 62.265 49.61L61.18 16.48C61.18 15.4 60.29 14.525 59.195 14.525L36.005 12.335C34.485 12.335 33.25 13.55 33.25 15.045V46.545C33.25 48.04 34.48 49.255 36.005 49.255Z" fill="#F44336"/>
<path d="M28.88 50.395L4.60499 52.705C2.31999 52.925 1.73499 51.65 1.73499 50.57L1.75999 49.26L31.615 45.045C31.615 46.545 30.4 50.395 28.88 50.395Z" fill="#C62828"/>
<path d="M27.995 49.255L24.205 49.59L3.71999 51.57C2.61999 51.57 1.73499 50.695 1.73499 49.615L2.81999 16.485C2.81999 15.405 3.70999 14.53 4.80499 14.53L27.995 12.34C29.515 12.34 30.75 13.555 30.75 15.05V46.55C30.75 48.04 29.52 49.255 27.995 49.255Z" fill="#F44336"/>
<path d="M39.375 41.84H24.635L24.185 49.605L28.785 50.035C28.785 50.035 29.77 52.495 32 52.495C34.23 52.495 35.215 50.035 35.215 50.035L39.815 49.605L39.375 41.84Z" fill="#424242"/>
<path d="M39.77 50.215L35.485 49.845M24.23 50.215L28.515 49.845" stroke="#616161" stroke-width="2.5" stroke-miterlimit="10"/>
<path d="M59.825 16.41L57.825 13.66L32 43.01L6.17502 13.66L4.17502 16.41L3.89502 49.085C3.89502 49.085 9.20502 49.75 16.3 49.03C22.48 48.405 25.39 46.805 27.455 47.22C29.935 47.72 30.385 49.245 30.465 49.505C30.69 50.225 31.135 50.785 32 50.785C32.865 50.785 33.25 50.485 33.515 49.595C33.595 49.335 34.065 47.725 36.545 47.225C38.61 46.81 41.52 48.41 47.7 49.035C54.795 49.755 60.105 49.09 60.105 49.09L59.825 16.41Z" fill="#94C6D6"/>
<path d="M57.15 45.935L57.23 32.74H59.965L60.105 49.085C60.105 49.085 57.93 48.24 57.15 45.935Z" fill="url(#paint0_linear_3_326)"/>
<path d="M57.275 38.245L57.15 45.94C57.15 45.94 51.17 45.63 41.645 43.98C35.415 42.9 32 46.36 32 46.36L31.945 38.245H57.275Z" fill="url(#paint1_linear_3_326)"/>
<path d="M6.72498 38.245L6.84998 45.94C6.84998 45.94 12.83 45.63 22.355 43.98C28.585 42.9 32 46.36 32 46.36L31.945 38.245H6.72498Z" fill="url(#paint2_linear_3_326)"/>
<path d="M6.85002 45.935L6.77002 32.74H4.03002L3.89502 49.085C3.89502 49.085 6.06502 48.24 6.85002 45.935Z" fill="url(#paint3_linear_3_326)"/>
<path d="M57.825 13.66C57.825 13.66 44.555 11.165 38.73 10.84C33.25 10.535 32.125 13.325 32.015 13.66H31.995C31.88 13.325 30.755 10.54 25.275 10.84C19.45 11.165 6.18003 13.66 6.18003 13.66L5.59003 45.86C5.59003 45.86 21.39 42.55 25.215 42.98C29.04 43.41 32 46.36 32 46.36C32 46.36 34.965 43.41 38.79 42.98C42.615 42.55 58.415 45.86 58.415 45.86L57.825 13.66Z" fill="#F5F5F5"/>
<path opacity="0.26" d="M26.81 10.845L24.11 42.945C24.535 42.935 24.91 42.945 25.21 42.98C29.03 43.405 32 46.36 32 46.36L31.915 13.66C31.915 13.66 31.265 11.1 26.81 10.845Z" fill="#94C6D6"/>
<path opacity="0.5" d="M12.655 15.0901C11.305 15.3251 10.2 15.5251 9.57 15.6351C9.57 15.9451 9.57 16.2851 9.565 16.6501C10.12 16.5501 11.25 16.3451 12.655 16.1001V15.0901ZM24.825 13.4801V14.4751C27.49 14.4701 28.965 15.1401 29.45 15.4101C29.45 14.9951 29.455 14.6251 29.455 14.3001C28.63 13.9301 27.12 13.4751 24.825 13.4801ZM22.655 13.6051C20.49 13.8251 17.475 14.2851 14.825 14.7251V15.7401C17.455 15.3051 20.475 14.8401 22.655 14.6101V13.6051ZM17.33 17.9201C14.1 18.4201 10.86 19.0001 9.56 19.2351V20.2501C10.69 20.0451 14.005 19.4451 17.33 18.9301V17.9201ZM23.345 17.1401C22.29 17.2251 20.945 17.3951 19.5 17.5951V18.6051C20.975 18.3951 22.355 18.2251 23.425 18.1351C27.015 17.8401 28.91 18.7201 29.44 19.0201V17.9051C28.46 17.4701 26.495 16.8801 23.345 17.1401ZM13.19 22.1951C11.61 22.4651 10.29 22.7001 9.56 22.8351V23.8501C10.215 23.7301 11.555 23.4901 13.19 23.2101V22.1951ZM29.44 21.5201C28.465 21.0801 26.495 20.4801 23.315 20.7451C21.28 20.9101 18.165 21.3751 15.36 21.8351V22.8501C18.19 22.3851 21.35 21.9151 23.4 21.7451C27.05 21.4451 28.95 22.3601 29.44 22.6451V21.5201ZM29.445 25.1351C28.48 24.6951 26.5 24.0801 23.295 24.3451C22.97 24.3701 22.62 24.4051 22.25 24.4451V25.4501C22.655 25.4051 23.03 25.3701 23.38 25.3401C27.1 25.0351 29 25.9901 29.45 26.2601C29.445 25.8851 29.445 25.5101 29.445 25.1351ZM20.075 24.7151C16.165 25.2501 11.295 26.1151 9.565 26.4301V27.4451C11.09 27.1651 16.075 26.2701 20.075 25.7201V24.7151ZM14.125 29.2351C12.16 29.5651 10.46 29.8701 9.565 30.0301V31.0451C10.375 30.8951 12.1 30.5851 14.125 30.2451V29.2351ZM29.45 28.7551C28.495 28.3151 26.505 27.6851 23.27 27.9501C21.47 28.1001 18.83 28.4751 16.3 28.8801V29.8901C18.855 29.4801 21.54 29.0951 23.35 28.9451C27.165 28.6301 29.07 29.6501 29.45 29.8801V28.7551ZM29.46 35.9901C28.55 35.5551 26.58 34.9001 23.33 35.1451V36.1501C27.475 35.8151 29.355 37.0551 29.46 37.1301V35.9901ZM13.19 36.5901C11.65 36.8551 10.34 37.0851 9.575 37.2251V38.2401C10.28 38.1101 11.6 37.8751 13.19 37.6001V36.5901ZM15.36 36.2301V37.2451C17.3 36.9301 19.385 36.6101 21.16 36.3851V35.3751C19.395 35.5951 17.31 35.9101 15.36 36.2301ZM18.835 39.2901C15.255 39.8101 11.23 40.5251 9.58 40.8251V41.8401C11.075 41.5651 15.175 40.8351 18.835 40.3001V39.2901ZM29.465 39.6101C28.56 39.1701 26.545 38.4851 23.185 38.7601C22.55 38.8101 21.81 38.8951 21.005 38.9951V40.0001C21.84 39.8951 22.61 39.8101 23.265 39.7551C27.545 39.4001 29.425 40.7301 29.445 40.7401L29.47 40.7101C29.47 40.3651 29.47 40.0001 29.465 39.6101ZM18.09 32.2001C14.68 32.7101 11.065 33.3551 9.57 33.6301V34.6451C10.91 34.4001 14.595 33.7401 18.09 33.2101V32.2001ZM29.455 32.3701C28.515 31.9301 26.52 31.2801 23.24 31.5501C22.4 31.6201 21.375 31.7401 20.265 31.8901V32.9001C21.41 32.7451 22.465 32.6201 23.325 32.5501C27.265 32.2251 29.17 33.3201 29.46 33.5051C29.455 33.1351 29.455 32.7551 29.455 32.3701ZM44.205 14.8551C48.345 15.4051 53.755 16.3851 55.225 16.6501C55.225 16.2801 55.225 15.9451 55.22 15.6351C53.5 15.3201 48.235 14.3801 44.2 13.8451V14.8551H44.205ZM42.03 13.5951C41.815 13.5751 41.61 13.5551 41.415 13.5401C38.28 13.2801 36.32 13.8651 35.335 14.3001C35.335 14.6251 35.34 15.0001 35.34 15.4101C35.9 15.1001 37.795 14.2451 41.335 14.5351C41.555 14.5551 41.79 14.5751 42.03 14.6001V13.5951ZM51.18 19.5401C52.5314 19.7701 53.8815 20.0085 55.23 20.2551V19.2401C54.445 19.0951 52.955 18.8301 51.18 18.5301V19.5401ZM49.01 18.1651C46.305 17.7301 43.385 17.3001 41.445 17.1401C38.295 16.8801 36.33 17.4701 35.345 17.9051V19.0201C35.875 18.7201 37.77 17.8401 41.36 18.1351C43.315 18.2951 46.28 18.7351 49.005 19.1751V18.1651H49.01ZM48.59 21.6951V22.7051C51.495 23.1701 54.2 23.6601 55.23 23.8501V22.8351C54.065 22.6251 51.41 22.1501 48.59 21.6951ZM44.2 24.6501C43.195 24.5201 42.265 24.4101 41.495 24.3501C38.29 24.0851 36.31 24.7001 35.345 25.1401V26.2651C35.795 26.0001 37.7 25.0401 41.415 25.3451C42.205 25.4101 43.165 25.5201 44.2 25.6601V24.6501ZM46.375 24.9551V25.9651C50 26.5051 53.905 27.2101 55.225 27.4501V26.4351C53.735 26.1601 49.91 25.4801 46.375 24.9551ZM46.815 28.6201C44.84 28.3201 42.925 28.0651 41.525 27.9501C38.285 27.6851 36.295 28.3151 35.345 28.7551V29.8851C35.725 29.6501 37.63 28.6351 41.445 28.9501C42.86 29.0651 44.815 29.3301 46.82 29.6351V28.6201H46.815ZM48.985 28.9601V29.9751C51.705 30.4151 54.195 30.8651 55.22 31.0501V30.0351C54.08 29.8251 51.63 29.3851 48.985 28.9601ZM52.52 33.1501V34.1651C53.7 34.3701 54.665 34.5451 55.215 34.6451V33.6301C54.615 33.5201 53.665 33.3501 52.52 33.1501ZM44.645 35.5051C43.5 35.3501 42.44 35.2251 41.58 35.1551C38.26 34.8801 36.255 35.5501 35.335 35.9901V37.1301C35.44 37.0551 37.33 35.8051 41.505 36.1501C42.385 36.2201 43.475 36.3501 44.655 36.5101V35.5051H44.645ZM46.815 35.8151V36.8251C50.255 37.3451 53.865 37.9951 55.215 38.2401V37.2251C53.715 36.9551 50.175 36.3251 46.815 35.8151ZM48.59 39.6901C46.055 39.2851 43.405 38.9051 41.605 38.7551C38.24 38.4801 36.23 39.1701 35.325 39.6051V40.7051L35.35 40.7351C35.365 40.7251 37.245 39.3951 41.53 39.7501C43.345 39.9001 46.04 40.2901 48.6 40.7001V39.6901H48.59ZM50.765 40.0501V41.0651C52.71 41.3901 54.37 41.6901 55.21 41.8451V40.8301C54.295 40.6601 52.655 40.3651 50.765 40.0501ZM41.465 31.5451C38.235 31.2901 36.265 31.9351 35.335 32.3701V33.5051C35.625 33.3201 37.525 32.2251 41.465 32.5501V31.5451ZM43.64 31.7751V32.7801C45.7 33.0401 48.175 33.4301 50.35 33.7901V32.7751C48.16 32.4151 45.685 32.0301 43.64 31.7751ZM39.86 20.6851C37.62 20.7001 36.145 21.1601 35.35 21.5201V22.6401C35.77 22.4001 37.205 21.7051 39.86 21.6801V20.6851ZM42.03 20.7951V21.8001C43.275 21.9251 44.82 22.1351 46.415 22.3701V21.3601C44.815 21.1201 43.275 20.9151 42.03 20.7951Z" fill="#757575"/>
<path d="M35.58 49.225C35.02 49.175 34.505 49.52 34.325 50.055C34.055 50.87 33.425 51.935 32 51.935C30.56 51.935 29.925 50.865 29.65 50.05C29.5644 49.7946 29.3959 49.5752 29.1712 49.4266C28.9465 49.278 28.6786 49.2088 28.41 49.23L28.215 49.245L28.22 49.405C28.22 50.4062 28.6177 51.3664 29.3257 52.0743C30.0336 52.7823 30.9938 53.18 31.995 53.18C32.9962 53.18 33.9564 52.7823 34.6644 52.0743C35.3723 51.3664 35.77 50.4062 35.77 49.405C35.77 49.355 35.765 49.24 35.765 49.24L35.58 49.225Z" fill="#616161"/>
<defs>
<linearGradient id="paint0_linear_3_326" x1="58.6215" y1="44.1005" x2="58.745" y2="35.449" gradientUnits="userSpaceOnUse">
<stop offset="0.267" stop-color="#82AEC0"/>
<stop offset="1" stop-color="#82AEC0" stop-opacity="0"/>
</linearGradient>
<linearGradient id="paint1_linear_3_326" x1="34.9585" y1="42.3005" x2="56.364" y2="42.3005" gradientUnits="userSpaceOnUse">
<stop stop-color="#2F7889"/>
<stop offset="1" stop-color="#82AEC0"/>
</linearGradient>
<linearGradient id="paint2_linear_3_326" x1="28.9895" y1="42.3005" x2="7.63148" y2="42.3005" gradientUnits="userSpaceOnUse">
<stop stop-color="#2F7889"/>
<stop offset="1" stop-color="#82AEC0"/>
</linearGradient>
<linearGradient id="paint3_linear_3_326" x1="5.37652" y1="44.1005" x2="5.25252" y2="35.449" gradientUnits="userSpaceOnUse">
<stop offset="0.267" stop-color="#82AEC0"/>
<stop offset="1" stop-color="#82AEC0" stop-opacity="0"/>
</linearGradient>
</defs>
</svg>
