<svg width="168" height="167" viewBox="0 0 168 167" fill="none" xmlns="http://www.w3.org/2000/svg">
<g opacity="0.6">
<path d="M28.4704 55.8533C32.2451 57.7414 36.0191 60.026 39.1856 63.1864C40.7455 64.7697 42.1163 66.5272 43.2706 68.4241C44.3935 70.2906 45.3474 72.2528 46.1209 74.2876C47.7244 78.5648 48.5946 82.9896 49.2698 87.3254C49.4467 88.4012 49.6063 89.4764 49.7565 90.548L50.1888 93.757L46.2504 94.2452C45.619 89.1978 45.1243 84.0111 45.5577 78.7495C45.9704 73.5113 47.3531 68.1734 50.1583 63.4981C50.8623 62.3225 51.6546 61.2017 52.5285 60.1451C53.4046 59.069 54.3782 58.0753 55.4369 57.1766C55.6948 56.9402 55.975 56.7352 56.2492 56.5213C56.5272 56.3131 56.7947 56.0871 57.0827 55.8947C57.657 55.507 58.2266 55.1071 58.8278 54.7701C60.0072 54.0713 61.2365 53.4597 62.5058 52.9402C63.7523 52.4271 65.0263 51.9831 66.3222 51.6104C67.6056 51.2536 68.8941 50.9237 70.1791 50.6655C72.7517 50.1214 75.308 49.7546 77.8287 49.3941L78.0772 54.1502L75.831 54.1021C73.3904 54.0565 70.9276 53.9263 68.4459 53.7266C65.9055 53.5449 63.3824 53.1736 60.8979 52.6157C58.2786 52.0331 55.7687 51.0404 53.4618 49.6746C52.2701 48.9417 51.1683 48.073 50.1788 47.0859C49.1933 46.0933 48.3355 44.9827 47.6251 43.7795C46.2218 41.4289 45.3612 38.9695 44.6256 36.6038C43.8828 34.2234 43.2642 31.8064 42.7722 29.3624C42.2679 26.9226 41.9077 24.4555 41.6935 21.9737C41.5903 20.7333 41.5099 19.4915 41.4711 18.2484L41.4424 17.3163C41.435 17.0056 41.4429 16.6943 41.4167 16.3842C41.3808 15.7633 41.3731 15.1415 41.3502 14.5197L45.5849 14.7193C45.229 19.2562 44.8482 23.8706 43.97 28.5076C43.8503 29.0861 43.7407 29.6672 43.6115 30.2444L43.1771 31.9733L42.6809 33.6952L42.1166 35.4059C41.317 37.7036 40.2961 39.919 39.0684 42.0212C36.6945 45.9951 33.4384 49.3752 29.5498 51.9027C28.0464 52.9092 26.4017 53.6885 24.669 54.2153C24.0363 54.3957 23.3902 54.5256 22.7367 54.6038C22.4455 54.6354 22.1711 54.6559 21.9135 54.6655L21.7232 54.671L21.5692 54.6518C21.4611 54.6371 21.3568 54.6229 21.2563 54.6093C20.0104 54.4281 19.3187 54.2122 20.2786 53.2726C20.4174 53.1423 20.5643 53.0206 20.7182 52.9083C20.7988 52.846 20.9125 52.7754 20.9851 52.7164C21.0525 52.6602 21.123 52.6016 21.1964 52.5405C21.4899 52.2981 21.8446 52.0613 22.2361 51.781C22.6243 51.4939 23.0756 51.2211 23.5494 50.8838C23.7899 50.724 24.0411 50.5571 24.3031 50.383C24.5601 50.2018 24.8291 50.0178 25.1101 49.831C26.5643 48.838 27.9516 47.7513 29.2632 46.5778C30.6027 45.3983 31.8489 44.1178 32.9907 42.7475C34.5469 40.8578 35.855 38.7784 36.8834 36.5595C37.9229 34.2933 38.7499 31.9364 39.354 29.5187C40.6506 24.6461 41.2369 19.5209 41.787 14.3551L41.7874 14.3522C41.8331 13.9242 42.0415 13.5299 42.3698 13.2499C42.6981 12.9699 43.1215 12.8255 43.5533 12.8462C43.9851 12.8669 44.3926 13.0512 44.6923 13.3614C44.992 13.6715 45.1613 14.084 45.1655 14.5144C45.1732 15.3524 45.1454 16.1921 45.2044 17.0294C45.2577 17.8665 45.321 18.7025 45.4061 19.5363C45.5688 21.2046 45.8106 22.8629 46.0866 24.5126C46.6327 27.8097 47.433 31.0602 48.4805 34.235C49.1506 36.4061 50.0209 38.5108 51.0804 40.5223C51.5787 41.4314 52.1662 42.2892 52.8342 43.0831C53.4861 43.829 54.2082 44.5112 54.9906 45.1201C55.725 45.6673 56.5047 46.1515 57.3214 46.5674C58.1757 46.9861 59.0575 47.3468 59.9607 47.6469C61.8509 48.2475 63.7933 48.6707 65.7627 48.9111C69.7963 49.4337 73.9885 49.51 78.2049 49.665L78.2296 49.6659C78.7578 49.6853 79.2594 49.9016 79.6349 50.272C80.0104 50.6424 80.2324 51.1398 80.2568 51.6655C80.2811 52.1912 80.1061 52.7069 79.7665 53.1101C79.4269 53.5134 78.9474 53.7748 78.4232 53.8426C75.2221 54.2563 72.0722 54.689 69.0451 55.3912C66.0305 56.1086 63.1112 57.0488 60.5334 58.5246C59.4338 59.15 58.3955 59.8766 57.4321 60.6949C56.4747 61.5318 55.5977 62.4555 54.8123 63.4542C53.2446 65.5196 52.0121 67.8171 51.1598 70.2629C50.2876 72.7447 49.7249 75.3237 49.4845 77.9421C49.2344 80.6037 49.1789 83.2798 49.3182 85.9493C49.4301 88.5481 49.6956 91.1623 50.0036 93.7858L50.0055 93.8032C50.0607 94.2737 49.9262 94.7467 49.6315 95.1187C49.3369 95.4906 48.9061 95.7311 48.4337 95.7873C47.9613 95.8435 47.4858 95.711 47.1114 95.4187C46.737 95.1264 46.4943 94.6982 46.4365 94.228C45.9192 90.0144 45.3732 85.8368 44.3948 81.8096C43.9352 79.8053 43.348 77.8321 42.6366 75.902C41.9263 74.0062 41.0385 72.1811 39.9848 70.4509C39.7083 70.0326 39.4514 69.5988 39.1606 69.1914L38.2615 67.9886C37.6292 67.2147 36.9567 66.4742 36.2469 65.7702C34.7778 64.3684 33.1678 63.1207 31.4423 62.0468C30.5735 61.4975 29.6778 60.9796 28.7629 60.4861C28.3055 60.2394 27.8437 59.9983 27.3774 59.7629L26.6752 59.4132L26.3242 59.2418L25.9907 59.0931C25.5556 58.8848 25.0782 58.7163 24.6144 58.5338C24.1318 58.3772 23.6601 58.1993 23.1648 58.0645C22.1897 57.7625 21.1828 57.5334 20.1765 57.3163C18.2249 56.9112 16.2448 56.6566 14.2538 56.5549C12.3241 56.4604 10.4199 56.5734 8.83724 57.119L8.38235 55.3173L8.38088 55.1982H8.38269H8.39383H8.40872H8.43855L8.49816 55.1986C8.53684 55.1993 8.57646 55.2002 8.63214 55.1974L8.9401 55.1874L9.56648 55.1616C9.98662 55.1429 10.4044 55.1243 10.8197 55.1059C11.6537 55.0728 12.4774 55.0402 13.291 55.0079C14.9208 54.9493 16.512 54.9142 18.0666 54.8815C18.5956 54.8616 19.1253 54.8822 19.6511 54.943C19.855 54.9593 19.9769 55.0205 20.1649 55.0198C20.2874 55.0164 20.4079 55.0503 20.5105 55.117L20.8191 54.7584C20.7755 54.9221 20.7151 54.9942 20.7439 55.0089C20.7635 55.0236 20.8707 54.9772 20.9686 54.8207C20.9805 54.8019 20.988 54.7807 20.9906 54.7586C20.9933 54.7366 20.991 54.7142 20.984 54.6932C20.9769 54.6721 20.9653 54.6528 20.9499 54.6368C20.9345 54.6207 20.9157 54.6082 20.8949 54.6002C20.8741 54.5922 20.8518 54.5889 20.8295 54.5905C20.8073 54.5921 20.7857 54.5986 20.7662 54.6094C20.7468 54.6203 20.73 54.6354 20.7171 54.6535C20.7042 54.6716 20.6954 54.6923 20.6915 54.7142L20.5954 55.2548C20.5775 55.3548 20.4418 55.5076 20.1901 55.6774C20.0153 55.8192 19.825 55.9409 19.6227 56.0401C18.9992 56.3437 18.3417 56.5722 17.664 56.7208C16.1958 57.057 14.7172 57.3542 13.2166 57.6368C12.4667 57.7776 11.7117 57.9131 10.9514 58.0432L9.80073 58.2331L9.20941 58.3233L8.90162 58.3667C8.78599 58.3819 8.61312 58.3972 8.47102 58.4094C7.96195 58.4531 7.45359 58.318 7.03402 58.0277C6.61444 57.7374 6.31008 57.3101 6.17368 56.8198C6.03728 56.3296 6.07743 55.8073 6.28717 55.3434C6.49691 54.8795 6.86302 54.5033 7.32208 54.2799L7.46885 54.2096C8.65131 53.6617 9.90734 53.2874 11.1977 53.0986C11.7954 53.0264 12.4051 52.9334 12.9912 52.9121C13.2864 52.896 13.5846 52.872 13.8778 52.8644L14.753 52.8574C17.0754 52.8803 19.3887 53.1494 21.6538 53.6604C22.7983 53.9062 23.9297 54.209 25.0438 54.5675L25.8889 54.8483L26.7376 55.1698C27.0183 55.2698 27.3073 55.4054 27.5926 55.5288L28.021 55.7178L28.4026 55.901C28.4246 55.8844 28.4453 55.8691 28.4704 55.8533Z" fill="black"/>
<path d="M128.813 65.6033C130.781 67.9527 132.368 70.594 133.517 73.4315C133.657 73.7868 133.809 74.1371 133.938 74.4962L134.284 75.5907C134.394 75.957 134.523 76.3167 134.615 76.6879L134.868 77.8081C134.945 78.1829 135.05 78.5509 135.102 78.9308L135.259 80.0694L135.335 80.6382C135.362 80.826 135.387 81.0156 135.4 81.2244C135.431 81.6337 135.447 82.0565 135.436 82.4967C135.426 83.2879 135.297 84.0731 135.053 84.8263C134.902 85.2652 134.699 85.6849 134.45 86.0768C134.172 86.4947 133.835 86.8706 133.45 87.1931L133.423 87.2159C133.104 87.4825 132.712 87.6467 132.297 87.6872C131.883 87.7276 131.466 87.6424 131.101 87.4426C130.736 87.2428 130.441 86.9379 130.253 86.5678C130.065 86.1977 129.995 85.7798 130.05 85.3689C130.308 83.4655 130.675 81.5781 131.148 79.7161C131.918 76.603 133.111 73.609 134.694 70.817C136.316 67.9626 138.436 65.4186 140.954 63.3043C143.532 61.1834 146.51 59.5967 149.713 58.6372C153.002 57.6634 156.481 57.5006 159.848 58.163C160.342 58.2646 160.793 58.5166 161.137 58.8843C161.482 59.252 161.703 59.7171 161.77 60.2154C161.838 60.7137 161.748 61.2205 161.514 61.6658C161.279 62.1111 160.912 62.4729 160.462 62.7012L160.417 62.7235C159.321 63.2626 158.147 63.6266 156.937 63.8021C155.825 63.9574 154.701 64.002 153.58 63.9353C152.505 63.8823 151.482 63.7554 150.498 63.615C149.517 63.4714 148.581 63.3316 147.564 63.1468C146.103 62.902 144.672 62.4992 143.298 61.9454C142.546 61.6311 141.827 61.2439 141.151 60.7892C140.461 60.3204 139.824 59.7785 139.252 59.173C138.188 58.0128 137.319 56.6897 136.678 55.2545C136.084 53.9287 135.618 52.5498 135.286 51.1363C133.946 45.6589 134.059 39.9285 135.615 34.5078L135.617 34.4999C135.753 34.0274 136.025 33.605 136.4 33.2845C136.774 32.964 137.234 32.7596 137.724 32.6963C138.213 32.633 138.711 32.7136 139.155 32.9283C139.599 33.143 139.97 33.4823 140.223 33.9045C141.016 35.2757 141.445 36.8252 141.47 38.4071C141.496 39.7938 141.323 41.1772 140.958 42.5157C140.796 43.1615 140.587 43.7586 140.388 44.3621C140.165 44.9573 139.948 45.5557 139.683 46.1329C139.179 47.2964 138.587 48.4205 137.913 49.4957C135.234 53.8378 131.351 57.3159 126.732 59.5108C123.794 60.8822 120.603 61.6356 117.359 61.7241C116.086 61.768 114.815 61.5943 113.601 61.2103C113.355 61.1282 113.125 61.0435 112.91 60.9543C112.696 60.8563 112.497 60.7562 112.314 60.6541C111.978 60.4753 111.665 60.2559 111.383 60.001C110.641 59.3355 110.782 58.7998 111.519 58.4495C112.259 58.1068 113.595 57.9257 115.411 57.7443L116.281 57.6508L117.161 57.5336C117.75 57.4441 118.347 57.3697 118.942 57.2587C120.128 57.0498 121.302 56.7706 122.455 56.4225C124.681 55.7333 126.77 54.6668 128.631 53.2701C132.393 50.4551 135.125 46.491 136.41 41.984C136.717 40.9571 136.872 39.8913 136.872 38.82C136.886 37.9358 136.647 37.0658 136.184 36.3111L140.141 35.7931C139.738 37.3876 139.486 39.0163 139.389 40.6576C139.2 43.6882 139.615 46.8044 140.139 49.6677C140.503 51.7082 141.138 53.6399 142.172 55.1249C142.659 55.839 143.275 56.456 143.99 56.9441C144.77 57.4376 145.619 57.8124 146.51 58.0563C147.525 58.3358 148.557 58.5541 149.599 58.7101C150.71 58.8888 151.815 59.0682 152.855 59.1739C154.947 59.3981 156.874 59.313 158.347 58.5942L158.857 62.6715L158.126 62.5335L157.761 62.4617L157.391 62.4183L156.65 62.3289L155.902 62.2915C154.2 62.2271 152.499 62.4256 150.858 62.8798C149.188 63.3464 147.587 64.0296 146.095 64.9116C144.595 65.7952 143.209 66.8602 141.971 68.0823C140.721 69.323 139.61 70.6958 138.659 72.1765C136.048 76.1934 134.507 80.9502 133.868 85.8116L130.979 84.2617C131.151 84.1172 131.281 83.9294 131.356 83.7178C131.476 83.3882 131.545 83.0422 131.559 82.6919C131.582 82.2566 131.571 81.8202 131.525 81.3868L131.317 79.9366C131.246 79.4523 131.148 78.9723 131.022 78.4989L130.857 77.782C130.807 77.5415 130.712 77.3128 130.642 77.0773C130.486 76.6113 130.353 76.1367 130.179 75.6757L129.612 74.308C128.79 72.501 127.768 70.7909 126.565 69.2096C125.333 67.6388 123.94 66.2012 122.406 64.9203C120.47 63.344 118.362 61.9886 116.123 60.8795C115.988 60.8094 115.856 60.7337 115.72 60.6672L115.307 60.4864L114.487 60.1165C113.948 59.8439 113.386 59.663 112.836 59.4426L112.012 59.1149C111.742 59.0182 111.474 58.9312 111.205 58.8632C110.673 58.6985 110.104 58.6961 109.571 58.8563C109.441 58.9059 109.322 58.967 109.229 59.0091C109.227 59.01 109.225 59.0112 109.223 59.0128C109.222 59.0143 109.221 59.0162 109.22 59.0182L109.209 59.0482C109.174 59.1575 109.182 59.276 109.23 59.3799C109.275 59.4753 109.338 59.5607 109.416 59.6308C109.558 59.757 109.736 59.8366 109.924 59.8586C110.014 59.8706 110.105 59.8636 110.191 59.8382C110.268 59.8233 110.344 59.8029 110.418 59.777C110.544 59.7299 110.635 59.7002 110.687 59.7334C110.737 59.7645 110.752 59.8625 110.678 60.0296C110.624 60.1317 110.552 60.2235 110.465 60.3005C110.361 60.4241 110.226 60.5178 110.074 60.5718C109.708 60.7191 109.302 60.7322 108.928 60.6088C108.651 60.5175 108.402 60.3564 108.206 60.1412C108.066 59.985 107.955 59.8048 107.879 59.6092C107.792 59.3772 107.752 59.1302 107.763 58.8829C107.77 58.6951 107.831 58.5135 107.94 58.3595L108.211 57.9723C108.353 57.7687 108.52 57.5831 108.707 57.4197C108.812 57.3287 108.923 57.2453 109.04 57.1704C109.164 57.1008 109.293 57.0398 109.426 56.9878C110.053 56.7505 110.721 56.6355 111.392 56.6492C111.916 56.6514 112.439 56.6972 112.956 56.7859L114.377 57.0111L114.734 57.0722L115.084 57.1604L115.787 57.3407C117.682 57.8312 119.512 58.5432 121.239 59.4619C124.091 61.0518 126.632 63.1412 128.739 65.6296C128.762 65.6209 128.785 65.6131 128.813 65.6033Z" fill="black"/>
<path d="M84.5785 116.083L86.0749 116.917L87.5149 117.847L87.8732 118.081L88.217 118.338L88.9035 118.852C89.1308 119.025 89.3626 119.192 89.5857 119.37L90.2359 119.931C91.1056 120.675 91.9327 121.466 92.7133 122.303L93.8355 123.599C94.2031 124.036 94.527 124.506 94.8727 124.958C96.1988 126.8 97.3233 128.778 98.2267 130.858C99.1008 132.935 99.7632 135.095 100.204 137.304C100.304 137.891 100.427 138.475 100.503 139.066L100.701 140.843L100.788 142.63C100.819 143.225 100.779 143.823 100.778 144.419C100.7 146.808 100.358 149.18 99.7587 151.494L99.29 153.122C99.1552 153.59 98.8553 153.994 98.4454 154.259C98.0354 154.524 97.5431 154.632 97.0591 154.565C96.575 154.497 96.1318 154.258 95.811 153.89C95.4902 153.523 95.3135 153.053 95.3133 152.566L95.3139 152.472C95.3185 147.218 95.3072 141.8 96.3215 136.358C96.82 133.603 97.6355 130.915 98.7519 128.346C99.8924 125.706 101.456 123.268 103.382 121.127C105.357 119.007 107.677 117.234 110.245 115.883C112.737 114.588 115.359 113.556 118.067 112.805C119.399 112.426 120.734 112.103 122.073 111.817C123.416 111.534 124.792 111.285 126.213 111.13C127.665 110.959 129.13 110.916 130.59 111.001C132.121 111.091 133.635 111.376 135.094 111.849C135.574 112.005 135.995 112.305 136.298 112.708C136.601 113.111 136.772 113.597 136.787 114.101C136.802 114.604 136.661 115.099 136.383 115.52C136.105 115.94 135.703 116.264 135.233 116.449L135.18 116.469C132.883 117.32 130.454 117.765 128.004 117.784C125.403 117.8 122.806 117.594 120.241 117.169C117.698 116.818 115.18 116.304 112.702 115.632C111.422 115.279 110.165 114.848 108.937 114.342C107.673 113.832 106.453 113.218 105.29 112.508C104.096 111.783 102.977 110.945 101.946 110.004C100.92 109.059 99.992 108.014 99.1746 106.886C97.6205 104.704 96.3587 102.33 95.4211 99.8235C93.5781 95.0084 92.4396 89.9545 92.0406 84.8169C91.9939 84.1762 91.9538 83.5349 91.9317 82.8927C91.9172 82.5718 91.9069 82.2507 91.9028 81.9295C91.8977 81.6055 91.886 81.3056 91.8927 80.9116C91.8925 80.0461 92.0211 79.1854 92.2741 78.3575C92.4475 77.8103 92.7065 77.2939 93.0415 76.8271C93.4417 76.2751 93.959 75.8176 94.5567 75.4871L94.582 75.4733C94.8745 75.3145 95.1956 75.2146 95.5268 75.1794C95.8581 75.1441 96.1931 75.1741 96.5127 75.2677C96.8323 75.3614 97.1303 75.5168 97.3896 75.725C97.6489 75.9333 97.8644 76.1904 98.0239 76.4816C98.1951 76.7972 98.2982 77.1448 98.3266 77.5024C99.0749 87.7385 96.4213 97.9355 90.7745 106.522C89.4598 108.517 87.9014 110.342 86.1351 111.954C85.2306 112.768 84.2617 113.508 83.2377 114.167C82.2095 114.829 81.1217 115.395 79.9884 115.857C78.191 116.616 76.2446 116.962 74.2942 116.868C73.0439 116.822 71.823 116.477 70.7346 115.863C69.5638 115.121 69.7957 114.608 70.8154 114.369C71.3338 114.22 72.0582 114.128 72.9681 113.955C74.0676 113.751 75.1527 113.476 76.2164 113.132C77.8492 112.582 79.393 111.799 80.7989 110.806C82.2617 109.763 83.5979 108.555 84.7808 107.205C86.4886 105.231 87.9547 103.063 89.1482 100.745C90.3852 98.4176 91.39 95.9752 92.1481 93.4527C93.6752 88.4069 94.2218 83.1175 93.7586 77.8678L96.7752 79.4803C96.776 79.482 96.7804 79.4882 96.776 79.4811L96.7645 79.465C96.7665 79.4683 96.7688 79.4714 96.7712 79.4744C96.7775 79.4823 96.7834 79.4879 96.7801 79.4838V79.4899C96.7629 79.5145 96.7484 79.5408 96.737 79.5685C96.6585 79.7532 96.6077 79.9483 96.5863 80.1478C96.5463 80.4605 96.5305 80.7759 96.5389 81.091L96.5835 82.2849C96.6665 83.9081 96.8392 85.525 97.0754 87.1305C97.5609 90.3366 98.3728 93.4852 99.4987 96.5276C100.276 98.6884 101.29 100.757 102.523 102.697C103.112 103.609 103.772 104.473 104.497 105.281C104.846 105.67 105.214 106.042 105.6 106.394C105.795 106.566 105.977 106.751 106.177 106.916L106.778 107.411C108.576 108.784 110.592 109.848 112.742 110.56C115.016 111.326 117.351 111.9 119.722 112.277C122.098 112.717 124.501 112.992 126.915 113.099C129.157 113.207 131.399 112.883 133.518 112.146L133.594 116.232C131.497 115.522 129.127 115.405 126.694 115.649C125.476 115.764 124.241 115.964 122.992 116.204C121.742 116.447 120.499 116.72 119.279 117.035C116.663 117.676 114.139 118.645 111.767 119.916C109.462 121.148 107.417 122.81 105.744 124.813C104.087 126.87 102.778 129.182 101.868 131.659C100.931 134.194 100.276 136.825 99.9159 139.503C99.3111 143.721 99.2466 148.078 99.1906 152.494L95.6099 151.908C97.9951 144.908 97.1631 136.84 93.5935 130.277C93.3601 129.873 93.1531 129.452 92.8991 129.06L92.1357 127.885C91.8762 127.497 91.5788 127.136 91.3027 126.76C91.1597 126.575 91.0276 126.382 90.8759 126.205L90.4151 125.678C89.8038 124.972 89.1572 124.298 88.4778 123.656C87.7649 123.051 87.074 122.416 86.3017 121.879C85.9314 121.59 85.5466 121.32 85.1487 121.07C84.7505 120.82 84.3618 120.554 83.9562 120.316L82.7177 119.634C82.3079 119.401 81.8673 119.226 81.4439 119.018C79.7266 118.223 77.9309 117.607 76.0857 117.182C71.6891 116.154 67.1236 116.065 62.6901 116.922L62.6437 115.17C65.2986 115.974 68.0853 116.256 70.8482 115.999C72.4164 115.852 73.2125 115.81 73.2059 116.146C73.1955 116.294 72.9883 116.551 72.5417 116.844C72.2708 117.022 71.9873 117.18 71.6934 117.316C71.5217 117.399 71.3345 117.484 71.1298 117.562C71.0276 117.601 70.9224 117.646 70.8115 117.682C70.6997 117.714 70.5841 117.746 70.4648 117.777C67.6938 118.502 64.799 118.627 61.9755 118.143C61.5081 118.061 61.0817 117.827 60.764 117.476C60.4463 117.125 60.2557 116.678 60.2225 116.207C60.1893 115.736 60.3154 115.267 60.5807 114.875C60.8461 114.484 61.2354 114.192 61.6867 114.046L61.8657 113.989C64.6707 113.099 67.5975 112.647 70.5416 112.65C72.9592 112.643 75.3674 112.95 77.7054 113.562C80.0596 114.169 82.3403 115.029 84.5073 116.127C84.5302 116.112 84.5519 116.097 84.5785 116.083Z" fill="black"/>
</g>
</svg>
