<svg width="64" height="64" viewBox="0 0 64 64" fill="none" xmlns="http://www.w3.org/2000/svg">
<path d="M48.76 39.4666L43 43.1333C39.7187 45.242 35.9004 46.3631 32 46.3631C28.0995 46.3631 24.2813 45.242 21 43.1333L15.24 39.4666C14.5976 39.0475 14.0706 38.4739 13.7073 37.7984C13.3439 37.1229 13.1557 36.367 13.16 35.6V27.6H50.84V35.6C50.8442 36.367 50.6561 37.1229 50.2927 37.7984C49.9293 38.4739 49.4023 39.0475 48.76 39.4666Z" fill="#656769"/>
<path d="M50.84 27.5867H13.16V33.7733L27.3733 42.0933C28.7755 42.9188 30.3729 43.3541 32 43.3541C33.627 43.3541 35.2245 42.9188 36.6266 42.0933L50.84 33.7733V27.5867Z" fill="#525252"/>
<path d="M48.76 39.4666L43 43.1333C39.7187 45.242 35.9004 46.3631 32 46.3631C28.0995 46.3631 24.2813 45.242 21 43.1333L15.24 39.4666C14.5976 39.0475 14.0706 38.4739 13.7073 37.7984C13.3439 37.1229 13.1557 36.367 13.16 35.6V27.6H50.84V35.6C50.8442 36.367 50.6561 37.1229 50.2927 37.7984C49.9293 38.4739 49.4023 39.0475 48.76 39.4666Z" stroke="#45413C" stroke-linecap="round" stroke-linejoin="round"/>
<path opacity="0.15" d="M14.6667 60.4C14.6667 61.0011 16.4929 61.5777 19.7435 62.0027C22.9941 62.4278 27.4029 62.6666 32 62.6666C36.5971 62.6666 41.0059 62.4278 44.2565 62.0027C47.5072 61.5777 49.3334 61.0011 49.3334 60.4C49.3334 59.7988 47.5072 59.2223 44.2565 58.7972C41.0059 58.3721 36.5971 58.1333 32 58.1333C27.4029 58.1333 22.9941 58.3721 19.7435 58.7972C16.4929 59.2223 14.6667 59.7988 14.6667 60.4Z" fill="#45413C"/>
<path d="M7.58664 25.6133L27.3733 37.2C28.7778 38.0187 30.3743 38.4501 32 38.4501C33.6256 38.4501 35.2222 38.0187 36.6266 37.2L56.4133 25.6133C57.2618 25.1195 57.9624 24.4073 58.4422 23.5509C58.9221 22.6945 59.1637 21.7252 59.142 20.7437C59.1202 19.7623 58.8358 18.8046 58.3184 17.9703C57.801 17.1361 57.0695 16.4557 56.2 16L36.2666 5.51999C34.9521 4.82416 33.4873 4.46039 32 4.46039C30.5126 4.46039 29.0478 4.82416 27.7333 5.51999L7.79997 16C6.93046 16.4557 6.19895 17.1361 5.68155 17.9703C5.16415 18.8046 4.87976 19.7623 4.85798 20.7437C4.8362 21.7252 5.07782 22.6945 5.55771 23.5509C6.03759 24.4073 6.7382 25.1195 7.58664 25.6133Z" fill="white"/>
<path d="M56.2 16L36.2666 5.51999C34.9521 4.82416 33.4873 4.46039 32 4.46039C30.5126 4.46039 29.0478 4.82416 27.7333 5.51999L7.79997 16C7.1369 16.3506 6.55265 16.8333 6.08324 17.4183C5.61382 18.0033 5.26918 18.6783 5.07056 19.4016C4.87193 20.1248 4.82354 20.8811 4.92835 21.6238C5.03316 22.3665 5.28895 23.0799 5.67997 23.72C6.24721 23.0459 6.97681 22.5273 7.79997 22.2133L27.8 14.2133C30.5443 13.1462 33.5889 13.1462 36.3333 14.2133L56.3333 22.2133C57.1565 22.5273 57.8861 23.0459 58.4533 23.72C58.8395 23.0718 59.0879 22.3509 59.1832 21.6024C59.2785 20.8539 59.2186 20.0938 59.0072 19.3695C58.7957 18.6452 58.4374 17.9722 57.9544 17.3924C57.4714 16.8127 56.8742 16.3387 56.2 16Z" fill="#F8F8F8"/>
<path d="M7.58664 25.6133L27.3733 37.2C28.7778 38.0187 30.3743 38.4501 32 38.4501C33.6256 38.4501 35.2222 38.0187 36.6266 37.2L56.4133 25.6133C57.2618 25.1195 57.9624 24.4073 58.4422 23.5509C58.9221 22.6945 59.1637 21.7252 59.142 20.7437C59.1202 19.7623 58.8358 18.8046 58.3184 17.9703C57.801 17.1361 57.0695 16.4557 56.2 16L36.2666 5.51999C34.9521 4.82416 33.4873 4.46039 32 4.46039C30.5126 4.46039 29.0478 4.82416 27.7333 5.51999L7.79997 16C6.93046 16.4557 6.19895 17.1361 5.68155 17.9703C5.16415 18.8046 4.87976 19.7623 4.85798 20.7437C4.8362 21.7252 5.07782 22.6945 5.55771 23.5509C6.03759 24.4073 6.7382 25.1195 7.58664 25.6133Z" stroke="#45413C" stroke-linecap="round" stroke-linejoin="round"/>
<path d="M29.76 21.6133L16.4533 30.2267V49.4267" stroke="#45413C" stroke-linecap="round" stroke-linejoin="round"/>
<path d="M15.5333 52.1733L13.1733 59.28C13.0398 59.6426 13.0274 60.0386 13.138 60.4088C13.2486 60.779 13.4762 61.1034 13.7867 61.3333C14.5556 61.9165 15.4885 62.243 16.4533 62.2667C17.4178 62.2412 18.3502 61.9149 19.12 61.3333C19.4249 61.105 19.6489 60.7852 19.7592 60.4207C19.8696 60.0561 19.8605 59.6657 19.7333 59.3067L17.3333 52.1733H15.5333Z" fill="#FFE500" stroke="#45413C" stroke-linecap="round" stroke-linejoin="round"/>
<path d="M13.7067 52.1733C13.7067 52.9018 13.996 53.6004 14.5111 54.1155C15.0262 54.6306 15.7249 54.92 16.4533 54.92C17.1818 54.92 17.8804 54.6306 18.3955 54.1155C18.9106 53.6004 19.2 52.9018 19.2 52.1733C19.2 51.4449 18.9106 50.7462 18.3955 50.2311C17.8804 49.716 17.1818 49.4266 16.4533 49.4266C15.7249 49.4266 15.0262 49.716 14.5111 50.2311C13.996 50.7462 13.7067 51.4449 13.7067 52.1733ZM35.6533 20.16C35.6533 21.1733 34.0267 21.9866 32 21.9866C29.9733 21.9866 28.3467 21.1733 28.3467 20.16C28.3467 19.1466 29.9733 18.3333 32 18.3333C34.0267 18.3333 35.6533 19.1466 35.6533 20.16Z" fill="#FFE500" stroke="#45413C" stroke-linecap="round" stroke-linejoin="round"/>
</svg>
