<svg width="48" height="48" viewBox="0 0 48 48" fill="none" xmlns="http://www.w3.org/2000/svg">
<path d="M11.022 34.332L14.558 37.867L12.083 40.342C11.8955 40.5295 11.6412 40.6348 11.376 40.6348C11.1108 40.6348 10.8565 40.5295 10.669 40.342L8.547 38.221C8.35953 38.0335 8.25421 37.7792 8.25421 37.514C8.25421 37.2489 8.35953 36.9946 8.547 36.807L11.022 34.332Z" fill="#BDBEC0"/>
<path d="M12.71 36.0001L9.52999 39.2001L8.52999 38.2001C8.34374 38.0127 8.2392 37.7593 8.2392 37.4951C8.2392 37.2309 8.34374 36.9774 8.52999 36.7901L11 34.3301L12.71 36.0001Z" fill="#E0E0E0"/>
<path d="M11.022 34.332L14.558 37.867L12.083 40.342C11.8955 40.5295 11.6412 40.6348 11.376 40.6348C11.1108 40.6348 10.8565 40.5295 10.669 40.342L8.547 38.221C8.35953 38.0335 8.25421 37.7792 8.25421 37.514C8.25421 37.2489 8.35953 36.9946 8.547 36.807L11.022 34.332Z" stroke="#45413C" stroke-linecap="round" stroke-linejoin="round"/>
<path d="M8.86999 38.54L6.06999 41.35C5.90616 41.5413 5.82055 41.7874 5.83027 42.0391C5.84 42.2908 5.94433 42.5295 6.12242 42.7076C6.30052 42.8857 6.53926 42.99 6.79093 42.9997C7.04261 43.0095 7.28868 42.9239 7.47999 42.76L10.28 39.96L8.86999 38.54Z" fill="#87898C" stroke="#45413C" stroke-linecap="round" stroke-linejoin="round"/>
<path opacity="0.15" d="M8 43.5C8 43.8978 9.26428 44.2794 11.5147 44.5607C13.7652 44.842 16.8174 45 20 45C23.1826 45 26.2348 44.842 28.4853 44.5607C30.7357 44.2794 32 43.8978 32 43.5C32 43.1022 30.7357 42.7206 28.4853 42.4393C26.2348 42.158 23.1826 42 20 42C16.8174 42 13.7652 42.158 11.5147 42.4393C9.26428 42.7206 8 43.1022 8 43.5Z" fill="#45413C"/>
<path d="M14.61 37.9998L11 34.3098C10.8295 34.1391 10.7264 33.9124 10.7099 33.6717C10.6933 33.4309 10.7644 33.1923 10.91 32.9998L26.58 14.6798C26.6694 14.5744 26.7798 14.4886 26.904 14.428C27.0282 14.3674 27.1637 14.3331 27.3019 14.3275C27.44 14.3219 27.5778 14.3449 27.7066 14.3952C27.8353 14.4456 27.9523 14.522 28.05 14.6198L34.3 20.8698C34.3978 20.9675 34.4743 21.0845 34.5246 21.2133C34.5749 21.342 34.598 21.4798 34.5923 21.618C34.5867 21.7561 34.5525 21.8916 34.4918 22.0158C34.4312 22.1401 34.3454 22.2504 34.24 22.3398L16 37.9998C15.8135 38.1801 15.5643 38.2808 15.305 38.2808C15.0457 38.2808 14.7965 38.1801 14.61 37.9998Z" fill="#C0DCEB"/>
<path d="M30 16.5398L28.08 14.6198C27.9823 14.522 27.8653 14.4456 27.7366 14.3952C27.6078 14.3449 27.47 14.3219 27.3319 14.3275C27.1937 14.3331 27.0582 14.3674 26.934 14.428C26.8098 14.4886 26.6994 14.5744 26.61 14.6798L10.91 32.9998C10.7644 33.1923 10.6933 33.4309 10.7099 33.6717C10.7264 33.9124 10.8295 34.1391 11 34.3098L12.69 35.9998L30 16.5398Z" fill="#DAEDF7"/>
<path d="M14.61 37.9998L11 34.3098C10.8295 34.1391 10.7264 33.9124 10.7099 33.6717C10.6933 33.4309 10.7644 33.1923 10.91 32.9998L26.58 14.6798C26.6694 14.5744 26.7798 14.4886 26.904 14.428C27.0282 14.3674 27.1637 14.3331 27.3019 14.3275C27.44 14.3219 27.5778 14.3449 27.7066 14.3952C27.8353 14.4456 27.9523 14.522 28.05 14.6198L34.3 20.8698C34.3978 20.9675 34.4743 21.0845 34.5246 21.2133C34.5749 21.342 34.598 21.4798 34.5923 21.618C34.5867 21.7561 34.5525 21.8916 34.4918 22.0158C34.4312 22.1401 34.3454 22.2504 34.24 22.3398L16 37.9998C15.8135 38.1801 15.5643 38.2808 15.305 38.2808C15.0457 38.2808 14.7965 38.1801 14.61 37.9998Z" stroke="#45413C" stroke-linecap="round" stroke-linejoin="round"/>
<path d="M25.5 14.8301C25.5 17.0844 26.3955 19.2464 27.9896 20.8405C29.5837 22.4345 31.7457 23.3301 34 23.3301C36.2543 23.3301 38.4163 22.4345 40.0104 20.8405C41.6045 19.2464 42.5 17.0844 42.5 14.8301C42.5 12.5757 41.6045 10.4137 40.0104 8.81967C38.4163 7.22561 36.2543 6.33008 34 6.33008C31.7457 6.33008 29.5837 7.22561 27.9896 8.81967C26.3955 10.4137 25.5 12.5757 25.5 14.8301Z" fill="#87898C"/>
<path d="M28 12.8201C29.5932 11.2324 31.7508 10.3409 34 10.3409C36.2492 10.3409 38.4068 11.2324 40 12.8201C41.1035 13.9196 41.8792 15.3046 42.24 16.8201C42.5435 15.571 42.5594 14.2693 42.2864 13.0131C42.0135 11.757 41.4589 10.5792 40.6645 9.56865C39.87 8.55808 38.8565 7.74111 37.7003 7.17934C36.5441 6.61757 35.2754 6.32568 33.99 6.32568C32.7046 6.32568 31.4359 6.61757 30.2797 7.17934C29.1235 7.74111 28.11 8.55808 27.3155 9.56865C26.5211 10.5792 25.9665 11.757 25.6936 13.0131C25.4206 14.2693 25.4365 15.571 25.74 16.8201C26.1065 15.3024 26.8892 13.9172 28 12.8201Z" fill="#BDBEC0"/>
<path d="M25.5 14.8301C25.5 17.0844 26.3955 19.2464 27.9896 20.8405C29.5837 22.4345 31.7457 23.3301 34 23.3301C36.2543 23.3301 38.4163 22.4345 40.0104 20.8405C41.6045 19.2464 42.5 17.0844 42.5 14.8301C42.5 12.5757 41.6045 10.4137 40.0104 8.81967C38.4163 7.22561 36.2543 6.33008 34 6.33008C31.7457 6.33008 29.5837 7.22561 27.9896 8.81967C26.3955 10.4137 25.5 12.5757 25.5 14.8301Z" stroke="#45413C" stroke-linecap="round" stroke-linejoin="round"/>
<path d="M40.36 19.78L29.05 8.46999C28.8626 8.28374 28.6092 8.1792 28.345 8.1792C28.0808 8.1792 27.8273 8.28374 27.64 8.46999C27.4537 8.65736 27.3492 8.91081 27.3492 9.17499C27.3492 9.43918 27.4537 9.69263 27.64 9.87999L39 21.19C39.1913 21.3538 39.4374 21.4394 39.689 21.4297C39.9407 21.42 40.1794 21.3157 40.3575 21.1376C40.5356 20.9595 40.64 20.7207 40.6497 20.469C40.6594 20.2174 40.5738 19.9713 40.41 19.78H40.36Z" fill="#DAEDF7" stroke="#45413C" stroke-linecap="round" stroke-linejoin="round"/>
<path d="M24.802 22.606L26.217 24.021L22.327 27.91L20.913 26.495L24.802 22.606Z" fill="#8CA4B8" stroke="#45413C" stroke-linecap="round" stroke-linejoin="round"/>
<path d="M24.81 22.6069L26.225 24.0219L24.457 25.7889L23.043 24.3749L24.81 22.6069Z" fill="#E8F4FA" stroke="#45413C" stroke-linecap="round" stroke-linejoin="round"/>
</svg>
