<svg width="147" height="148" viewBox="0 0 147 148" fill="none" xmlns="http://www.w3.org/2000/svg">
<g opacity="0.6">
<path d="M62.2581 77.3312L63.8882 78.2504C64.4335 78.5537 65.0029 78.8123 65.5591 79.0963L66.3982 79.514C66.6804 79.6478 66.9703 79.765 67.256 79.8914L68.9774 80.6355C70.1518 81.0604 71.3088 81.5447 72.5101 81.8894L73.4042 82.171C73.7017 82.2673 73.9999 82.3611 74.3038 82.4316L76.1178 82.8958C76.4189 82.981 76.7253 83.0359 77.031 83.0955L77.948 83.2757L78.8653 83.4565C79.1712 83.516 79.4805 83.5442 79.7881 83.5898C80.4041 83.6703 81.0199 83.7623 81.6368 83.8352L83.4915 83.9677C84.0932 84.0175 84.6971 84.0342 85.3006 84.0179C85.8981 84.008 86.4967 83.9677 87.094 83.9083C88.2903 83.7829 89.4752 83.5648 90.6381 83.2561C93.0849 82.6314 95.3781 81.5094 97.376 79.9594C98.3249 79.2059 99.1557 78.3136 99.8406 77.3121C100.497 76.3355 100.968 75.2459 101.231 74.0977C101.272 73.94 101.304 73.7804 101.329 73.6194L101.406 73.1361L101.414 73.0831C101.468 72.7489 101.615 72.4369 101.838 72.1836C102.062 71.9303 102.353 71.7462 102.677 71.6529C103.001 71.5596 103.344 71.5609 103.668 71.6568C103.991 71.7526 104.28 71.939 104.502 72.194C106.016 73.9373 108.262 74.9898 110.652 75.2684C113.077 75.5459 115.53 75.119 117.72 74.0382C118.79 73.5115 119.77 72.8165 120.622 71.9796C121.043 71.5633 121.423 71.1075 121.756 70.6183L122.024 70.2562C122.107 70.1307 122.178 69.9967 122.256 69.8678C122.403 69.6046 122.574 69.3558 122.706 69.0835C123.251 67.9917 123.654 66.8338 123.904 65.6385C124.144 64.4222 124.244 63.1823 124.201 61.9431C124.107 59.4405 123.457 56.9908 122.3 54.7726C121.713 53.6789 121.016 52.6488 120.219 51.6987C119.393 50.7477 118.481 49.8753 117.495 49.0925C113.499 45.9661 108.306 44.3222 103.143 44.186L103.133 44.1857C102.734 44.1751 102.349 44.0411 102.03 43.8019C101.71 43.5627 101.472 43.2302 101.348 42.8498C101.225 42.4694 101.221 42.0599 101.338 41.6774C101.455 41.2948 101.687 40.958 102.002 40.7131C103.005 39.914 103.693 38.7834 103.944 37.5226C104.09 36.8475 104.148 36.1561 104.115 35.4661C104.078 34.7541 103.961 34.0487 103.766 33.3631C103.388 31.9928 102.68 30.7372 101.703 29.7077L101.523 29.5242L101.317 29.3427L100.907 28.9769L100.468 28.6427C100.325 28.5266 100.174 28.4196 100.018 28.3222L99.553 28.0184C99.3934 27.9231 99.2273 27.8367 99.0653 27.7445C98.7373 27.5616 98.3994 27.3971 98.0533 27.2517C95.9217 26.3503 93.5179 25.9613 91.0846 25.8816C89.8589 25.8442 88.632 25.8847 87.4113 26.0029C86.8009 26.0233 86.1955 26.1004 85.5881 26.1604L84.683 26.2903C84.5319 26.3092 84.3821 26.3372 84.2344 26.3741C84.0829 26.3898 83.9323 26.4136 83.7833 26.4455C83.4831 26.4979 83.1833 26.5525 82.89 26.6278C82.5956 26.6991 82.2972 26.7617 82.0045 26.8391C81.4247 27.0033 80.8538 27.1978 80.2941 27.4217C79.1869 27.8416 78.1288 28.3819 77.1386 29.0329C77.0171 29.113 76.889 29.1862 76.7724 29.2715L76.4284 29.5339C76.194 29.7002 75.9691 29.8798 75.755 30.0717L75.1222 30.6467L74.551 31.2703C73.8425 32.129 73.27 33.0922 72.8537 34.1261L72.8473 34.142C72.6666 34.5911 72.3156 34.9496 71.8717 35.1388C71.4277 35.3279 70.9271 35.3322 70.48 35.1507C70.2979 35.0759 70.1288 34.9726 69.9788 34.8447C68.8958 33.9132 67.7919 33.0124 66.662 32.1541C65.5281 31.3033 64.3751 30.4859 63.195 29.7218C62.0098 28.9682 60.8043 28.2565 59.5692 27.6176C58.3391 26.9871 57.0754 26.4253 55.7837 25.9345C54.5024 25.4619 53.1917 25.074 51.8601 24.7733C50.5478 24.4894 49.2146 24.3138 47.8738 24.2481C46.5392 24.2006 45.2029 24.2674 43.8795 24.4476C42.5661 24.6356 41.2728 24.9447 40.0158 25.371C39.6976 25.4619 39.4019 25.6068 39.0935 25.7205L38.6352 25.9012C38.4835 25.9634 38.3398 26.0414 38.1916 26.1103C37.8993 26.2555 37.5985 26.386 37.3123 26.5404L36.4684 27.0262C35.3704 27.691 34.3541 28.4832 33.4404 29.3864C33.2082 29.6045 33.0156 29.8575 32.7995 30.0895L32.4835 30.4448L32.2038 30.8278C32.0265 31.0857 31.8021 31.3262 31.6416 31.5835L31.3913 31.9655L31.1622 32.3638C30.5587 33.4593 30.1296 34.643 29.8903 35.8717C29.6989 36.4874 29.5596 37.1183 29.4741 37.7575C29.3759 38.4026 29.3648 39.058 29.441 39.706C29.5472 41.0006 29.8549 42.2705 30.353 43.4694C31.3576 45.8372 33.1535 47.7605 35.3746 48.6769C35.7168 48.8181 36.0082 49.0602 36.2103 49.3714C36.4125 49.6825 36.5158 50.048 36.5066 50.4194C36.4974 50.7908 36.3762 51.1506 36.1589 51.4513C35.9417 51.752 35.6386 51.9793 35.2899 52.1032L35.1858 52.1397C34.1369 52.5092 33.1288 52.9866 32.1776 53.5643C31.9444 53.7164 31.6992 53.8486 31.4754 54.0144L30.7971 54.4995L30.1524 55.0267C29.9341 55.1981 29.7433 55.4008 29.5365 55.5845C27.7176 57.1872 26.3186 59.2142 25.4626 61.4872L25.1875 62.3409L24.9824 63.2122C24.926 63.5028 24.8967 63.7929 24.8489 64.0841C24.8019 64.375 24.8114 64.6733 24.7868 64.9686C24.755 66.1685 24.905 67.3664 25.2318 68.5211C25.3825 69.0547 25.5609 69.58 25.7661 70.095C25.8754 70.3363 25.9856 70.571 26.0869 70.8051C26.1817 71.0433 26.3209 71.248 26.4293 71.466C26.6428 71.9066 26.9162 72.2768 27.1426 72.6607C27.2661 72.8436 27.4 73.0108 27.522 73.1831C27.6375 73.3533 27.7621 73.5171 27.8954 73.6737C28.7293 74.6844 29.6744 75.5972 30.7125 76.3946C31.936 77.2463 31.9313 77.6499 30.4895 77.4968C30.0505 77.4215 29.6184 77.3096 29.1978 77.1624C28.9505 77.0666 28.6912 76.9442 28.4091 76.8144C28.2706 76.746 28.1187 76.6858 27.9782 76.6003L27.5422 76.334C26.0768 75.4042 24.8284 74.1676 23.8824 72.7088C22.3859 70.453 21.5449 67.8229 21.4538 65.1137L21.4547 64.0669C21.4814 63.7177 21.5162 63.3678 21.5497 63.0181C21.563 62.8442 21.5876 62.6713 21.6233 62.5006L21.7179 61.9892C21.7516 61.8194 21.7782 61.6475 21.8188 61.4796L21.9543 60.9798C22.3038 59.6606 22.8321 58.3957 23.5242 57.2208C24.1087 56.2128 24.7924 55.2662 25.5649 54.3952C25.9335 53.9466 26.3596 53.5557 26.7619 53.1414C26.9733 52.9456 27.194 52.7599 27.4136 52.5736C27.629 52.3821 27.8582 52.2085 28.0898 52.0383C29.9181 50.6506 31.9767 49.599 34.1702 48.9325L34.0164 51.754C31.7147 50.6537 29.8017 48.8747 28.5327 46.6542C28.2213 46.1187 27.9417 45.5651 27.6954 44.9965C27.5674 44.7157 27.4621 44.4266 27.3455 44.1417C27.2467 43.851 27.1404 43.5623 27.0517 43.2689C26.697 42.0982 26.462 40.8943 26.3503 39.6758C26.2944 39.0675 26.2853 38.4583 26.2415 37.8454C26.2194 37.2294 26.2288 36.6128 26.2698 35.9978C26.2999 35.3766 26.3939 34.7602 26.5503 34.1584C26.6935 33.55 26.8715 32.9505 27.0836 32.3628C27.5097 31.1742 28.0904 30.0474 28.8106 29.0117C29.1587 28.4985 29.5401 28.0089 29.9522 27.5461L30.5685 26.8518C30.7864 26.6335 31.0134 26.4247 31.2361 26.2113C33.024 24.534 35.1082 23.2068 37.3813 22.2982C39.6137 21.395 41.9641 20.82 44.3599 20.5908C44.6568 20.5511 44.9555 20.5345 45.2544 20.5215L46.1507 20.476C46.7485 20.4613 47.3473 20.4785 47.9454 20.4851C48.5422 20.5327 49.1414 20.5541 49.7365 20.6268L50.6285 20.7452L51.074 20.8065L51.511 20.8897C53.8352 21.3218 56.1074 21.9995 58.2895 22.9117C60.9083 24.0183 63.414 25.3775 65.7715 26.9702C68.0761 28.5276 70.2721 30.2413 72.3442 32.0992L69.4832 32.8144C69.656 32.442 69.8267 32.0742 69.9953 31.711C70.078 31.5296 70.174 31.3546 70.2825 31.1874L70.5919 30.6812C71.8742 28.7044 73.5851 27.0446 75.5966 25.8259L75.9586 25.5944L76.3321 25.3895L77.0801 24.9815C77.5878 24.7357 78.0979 24.4926 78.6148 24.2753C79.1374 24.0779 79.6526 23.8488 80.1846 23.689C80.4483 23.6004 80.7138 23.5171 80.9753 23.4207C81.2389 23.3328 81.506 23.2607 81.7716 23.1802C82.8326 22.8656 83.9118 22.6161 85.0031 22.4334C85.548 22.348 86.0946 22.2706 86.6424 22.2044C86.9156 22.1635 87.1922 22.1576 87.467 22.1359C87.7428 22.1144 88.0168 22.1031 88.2902 22.0973C89.3891 22.0565 90.4892 22.0733 91.5863 22.1476C92.6969 22.2139 93.8019 22.354 94.894 22.5669C96.0052 22.7758 97.0978 23.0746 98.1611 23.4604C99.2429 23.8581 100.288 24.3512 101.283 24.9339C102.289 25.5427 103.224 26.2619 104.071 27.0783C104.933 27.9377 105.658 28.9239 106.223 30.0031C107.365 32.1481 107.869 34.5774 107.675 37.0019C107.568 38.2584 107.229 39.4839 106.675 40.6158C106.098 41.7865 105.266 42.8124 104.242 43.6182L103.222 40.5125C105.702 40.5701 108.166 40.9308 110.559 41.5867C114.216 42.5842 117.618 44.3563 120.537 46.784C122.009 48.0256 123.31 49.4572 124.408 51.0416C126.049 53.4651 127.142 56.2199 127.61 59.1127C128.077 62.0055 127.909 64.966 127.116 67.7864C126.552 69.6932 125.643 71.4794 124.435 73.0559C123.833 73.8652 123.136 74.5998 122.361 75.2445C121.596 75.8875 120.766 76.4495 119.886 76.9215C117.03 78.4529 113.783 79.0899 110.563 78.7504C109.757 78.667 108.959 78.5141 108.179 78.2934C107.39 78.0772 106.622 77.7864 105.887 77.4248C105.143 77.0631 104.436 76.6283 103.777 76.1269C103.119 75.6177 102.511 75.0452 101.962 74.4176L104.747 73.5702C104.557 74.9488 104.152 76.2888 103.547 77.5408C102.942 78.773 102.16 79.9093 101.227 80.9132C100.318 81.8955 99.2966 82.7658 98.1834 83.5057C97.0957 84.2361 95.9426 84.8631 94.739 85.3786C92.3602 86.3903 89.8427 87.0351 87.2719 87.291C86.6315 87.3508 85.9894 87.3969 85.3449 87.4089C85.0228 87.4173 84.7006 87.4213 84.3777 87.4125C84.0513 87.4134 83.7382 87.3926 83.4258 87.3704L81.546 87.2461C81.2317 87.2337 80.9226 87.1824 80.6116 87.1448L79.68 87.0243C78.4319 86.8954 77.2126 86.6162 75.9835 86.3924C75.372 86.2673 74.7709 86.0982 74.1644 85.9529C73.5593 85.8013 72.9514 85.6605 72.3597 85.4639L70.5737 84.9137C69.98 84.7257 69.4018 84.4928 68.8155 84.2843C67.6366 83.8818 66.5049 83.3595 65.3579 82.8777C63.0881 81.8534 60.8923 80.671 58.7865 79.3391C57.7155 78.702 56.7163 77.9493 55.6941 77.2349C55.1902 76.8671 54.7122 76.4617 54.2202 76.0768L53.4877 75.4918C53.2466 75.293 53.02 75.0752 52.7855 74.8678C50.4028 72.8069 48.3229 70.4173 46.608 67.77L48.6441 67.1086C48.6542 68.0448 48.5351 68.9779 48.2902 69.8813C48.0456 70.7703 47.6685 71.6169 47.1718 72.3926C46.2024 73.8448 44.8983 75.0406 43.3704 75.8784C40.6077 77.3869 37.4416 77.9814 34.3228 77.5772C33.6127 77.4982 32.9236 77.2867 32.2907 76.9538C31.9007 76.71 31.7791 76.513 31.8838 76.3842C32.1043 76.1091 33.1559 76.1927 35.1655 76.0322C37.7965 75.8412 40.322 74.9155 42.4571 73.3596C43.4331 72.6331 44.2294 71.6905 44.7843 70.6051C45.0384 70.089 45.2227 69.5411 45.3323 68.9759C45.431 68.3988 45.466 67.8125 45.4368 67.2276C45.4176 66.7819 45.5402 66.3416 45.7868 65.9705C46.0335 65.5995 46.3913 65.317 46.8086 65.1639C47.2258 65.0108 47.6808 64.9952 48.1075 65.1193C48.5342 65.2434 48.9104 65.5007 49.1817 65.854L49.2771 65.98L50.2453 67.257C51.8648 69.288 53.6786 71.1546 55.6608 72.83C57.7061 74.5213 59.8885 76.0379 62.1852 77.3641C62.2088 77.3523 62.231 77.3417 62.2581 77.3312Z" fill="black"/>
<path d="M53.0008 91.8295C53.6994 91.9877 54.3872 92.1912 55.0595 92.4389C57.0314 93.1857 58.8455 94.2989 60.4069 95.7204C60.9535 96.2148 61.4698 96.742 61.953 97.2991C62.5044 97.9376 62.9648 98.6498 63.321 99.4155C63.5641 99.9242 63.7498 100.459 63.8746 101.009C64.0106 101.576 64.074 102.158 64.0632 102.74C64.0588 103.042 64.0352 103.343 63.9925 103.641C63.9421 103.947 63.8702 104.249 63.7772 104.545C63.6834 104.846 63.5657 105.14 63.4254 105.422C63.2806 105.704 63.1158 105.974 62.9322 106.231C62.2226 107.176 61.2914 107.93 60.2215 108.426C59.2905 108.864 58.3089 109.185 57.2992 109.382C54.4427 109.983 51.4896 109.945 48.6493 109.271C47.7035 109.039 46.7767 108.735 45.8772 108.362C44.8629 107.953 43.9114 107.402 43.0513 106.725C42.5943 106.33 42.1882 105.878 41.8424 105.381C41.4605 104.863 41.153 104.293 40.9288 103.689L42.8721 104.834C41.9037 104.985 40.9221 105.031 39.9439 104.972C38.9725 104.907 38.0103 104.741 37.0728 104.477C36.1368 104.215 35.2313 103.852 34.3718 103.397C33.9407 103.171 33.5228 102.92 33.1201 102.646L32.8042 102.43C32.653 102.318 32.5104 102.196 32.3775 102.063C32.1446 101.829 31.9381 101.569 31.7615 101.29C31.4526 100.792 31.2136 100.253 31.0514 99.6886C30.8982 99.1266 30.8266 98.5454 30.8389 97.9629C30.852 97.3898 30.9484 96.8217 31.1248 96.2765C31.2938 95.7382 31.538 95.2267 31.85 94.7572C32.4718 93.8272 33.3219 93.0739 34.3181 92.5702C34.5449 92.4542 34.7776 92.3501 35.0152 92.2586C35.2396 92.1692 35.4702 92.0891 35.7013 92.011C36.1741 91.8572 36.6578 91.7398 37.1483 91.6596C37.9271 91.5226 38.7235 91.5198 39.5032 91.6513C40.2889 91.782 41.0441 92.0567 41.7309 92.4617C42.2644 92.7678 42.7163 93.1989 43.0481 93.7183C43.164 93.904 43.2552 94.1042 43.3194 94.3138C43.3047 94.4748 43.3015 94.6367 43.3097 94.7982C43.3441 95.3327 43.4448 95.721 42.9847 95.7064C42.8351 95.6937 42.689 95.6547 42.5528 95.5912C42.4577 95.5495 42.3654 95.5017 42.2765 95.448C42.2424 95.4257 42.2047 95.4094 42.1651 95.3997L42.0663 95.3641C41.9247 95.3096 41.787 95.2454 41.6541 95.1722C41.4959 95.1061 41.3422 95.03 41.1938 94.9442C40.785 94.7411 40.3622 94.5679 39.9285 94.4261C39.4868 94.294 39.0324 94.2094 38.5729 94.1737C38.0189 94.1397 37.463 94.19 36.924 94.323C36.6424 94.3907 36.3644 94.4728 36.0912 94.5689C35.9526 94.6153 35.8164 94.6747 35.6786 94.7268C35.5441 94.7811 35.4473 94.8378 35.3282 94.8909C34.8856 95.1259 34.5018 95.4587 34.2057 95.8643C33.9096 96.2698 33.709 96.7375 33.6189 97.2322C33.5304 97.7056 33.5532 98.1932 33.6855 98.6562C33.75 98.8813 33.8414 99.0978 33.9578 99.3008C34.0587 99.4928 34.1872 99.6689 34.3392 99.8235C34.3908 99.8747 34.449 99.9188 34.5123 99.9545C34.5275 99.9612 34.5422 99.969 34.5562 99.9779L34.6508 100.033L34.8395 100.142C34.9633 100.217 35.094 100.282 35.2234 100.347C35.352 100.415 35.4815 100.48 35.6156 100.536C36.1422 100.777 36.6898 100.968 37.2514 101.108C37.8731 101.258 38.506 101.358 39.1438 101.404C39.7777 101.455 40.4006 101.473 41.0063 101.505C41.4461 101.526 41.8867 101.512 42.3244 101.465L42.474 101.452C42.8288 101.42 43.1838 101.509 43.4827 101.703C43.7816 101.898 44.0072 102.187 44.1237 102.525L44.1981 102.742C44.2327 102.811 44.2566 102.885 44.2959 102.955C44.368 103.104 44.4635 103.24 44.5787 103.358C44.6363 103.424 44.6977 103.486 44.7624 103.544C44.8269 103.607 44.8947 103.666 44.9657 103.721C45.0365 103.782 45.1108 103.838 45.1882 103.89C45.2564 103.953 45.3385 104.008 45.4144 104.067C46.1128 104.554 46.8805 104.932 47.6914 105.189C49.4181 105.774 51.2175 106.114 53.0376 106.2C53.8015 106.241 54.5673 106.221 55.3281 106.141C56.0803 106.064 56.8252 105.926 57.5556 105.73C58.207 105.56 58.8286 105.291 59.3987 104.932C59.8623 104.646 60.2363 104.234 60.4778 103.744C60.8874 102.943 60.8162 101.747 60.3411 100.705C60.2865 100.572 60.2124 100.449 60.1497 100.32C60.0713 100.201 60.0081 100.07 59.9215 99.9573C59.8431 99.8393 59.7578 99.726 59.6659 99.6182C59.5871 99.5158 59.4642 99.3806 59.3498 99.2594C58.8828 98.7608 58.3825 98.2948 57.8524 97.8646C55.7403 96.1238 53.1376 94.969 50.3936 94.8589C48.2098 94.7792 46.1189 94.9845 43.9594 95.0612C43.8115 95.0851 43.66 95.0683 43.5208 95.0126C43.4458 94.9887 43.4434 94.8925 43.4733 94.7924C43.4809 94.766 43.4907 94.738 43.5021 94.7085L43.5203 94.6631L43.5302 94.6397L43.5352 94.6279L43.5378 94.622L43.5391 94.619L43.5398 94.6175L43.5401 94.6167L43.5435 94.5969C43.5729 94.521 43.6064 94.4336 43.6363 94.337C43.668 94.2368 43.6918 94.1342 43.7076 94.0302C43.726 93.9315 43.7213 93.8037 43.7359 93.7587C43.7127 93.73 43.8287 93.6601 43.9102 93.5984L44.1683 93.4111C44.3431 93.2884 44.5148 93.1532 44.6993 93.0382C44.8799 92.9174 45.0708 92.8129 45.2697 92.7258C45.4633 92.6274 45.6685 92.5522 45.8711 92.4678C46.2752 92.2951 46.6998 92.1629 47.1269 92.0284C47.5608 91.9079 48.001 91.811 48.4453 91.7382C49.1914 91.6165 49.9483 91.5759 50.703 91.6171C51.4652 91.6625 52.2242 91.7524 52.976 91.8862L53.0008 91.8295Z" fill="black"/>
<path d="M24.878 116.434C26.0953 116.372 27.3148 116.497 28.4944 116.806C29.1025 116.959 29.6905 117.158 30.2944 117.335C31.1711 117.578 32 117.969 32.7452 118.492C33.1846 118.808 33.5709 119.192 33.8898 119.629C34.2585 120.14 34.5037 120.73 34.6058 121.352C34.7074 121.993 34.6509 122.649 34.4411 123.262C34.2526 123.812 33.965 124.322 33.5927 124.767C32.9461 125.526 32.1323 126.123 31.2159 126.511C30.7084 126.733 30.1768 126.895 29.632 126.993C29.3668 127.046 29.1028 127.082 28.8398 127.112C28.5485 127.146 28.2551 127.161 27.9618 127.155C27.674 127.148 27.3837 127.126 27.1193 127.097C26.8796 127.068 26.6402 127.035 26.4009 126.997C25.922 126.922 25.4452 126.82 24.9667 126.707C23.9779 126.484 23.0202 126.14 22.1149 125.682C21.8767 125.563 21.6447 125.431 21.4197 125.289C21.3057 125.215 21.191 125.146 21.0799 125.063L20.9126 124.943L20.8292 124.883L20.723 124.795C20.1436 124.323 19.719 123.688 19.5046 122.97C19.3853 122.551 19.3535 122.112 19.4111 121.681C19.4687 121.249 19.6145 120.834 19.8394 120.461C20.0047 120.161 20.275 119.934 20.5979 119.823C20.7298 119.782 20.8676 119.765 21.0053 119.772C21.1369 119.784 21.2659 119.815 21.3882 119.865C21.5408 119.937 21.6776 120.038 21.7907 120.163C21.9039 120.289 21.991 120.435 22.0472 120.595C22.1513 120.819 22.2115 121.062 22.2245 121.309C22.2154 121.517 22.1941 121.724 22.1609 121.929C22.1475 122.047 22.1591 122.167 22.1949 122.28C22.2307 122.393 22.2899 122.498 22.3686 122.587C22.3892 122.61 22.4147 122.628 22.4362 122.651C22.4479 122.664 22.4602 122.675 22.4732 122.687L22.5384 122.735C22.6247 122.801 22.7142 122.864 22.8067 122.921C22.9951 123.043 23.1926 123.15 23.3973 123.242C24.2761 123.618 25.224 123.803 26.1791 123.786C26.4501 123.783 26.7277 123.76 27.0011 123.749C27.1372 123.746 27.2737 123.741 27.4068 123.75C27.5139 123.756 27.6205 123.767 27.7261 123.786C27.8831 123.815 28.0426 123.826 28.2021 123.821C28.271 123.821 28.3737 123.805 28.4647 123.794C28.5575 123.783 28.6496 123.767 28.7406 123.746C29.0928 123.67 29.4353 123.554 29.7617 123.401C30.2944 123.16 30.7615 122.794 31.1237 122.333C31.2065 122.234 31.2638 122.116 31.2906 121.989C31.3119 121.894 31.3052 121.794 31.2713 121.702C31.1206 121.383 30.8806 121.114 30.5808 120.929C29.736 120.38 28.7862 120.015 27.7924 119.857C27.2699 119.76 26.7401 119.709 26.2089 119.703C25.6853 119.705 25.163 119.755 24.6488 119.854C24.4471 119.899 24.2401 119.921 24.038 119.955C23.9354 119.968 23.8302 119.976 23.723 119.98C23.6153 119.991 23.5071 119.995 23.3989 119.992C23.1712 119.983 22.9449 119.984 22.6998 119.969L21.9254 119.911C21.8005 119.907 21.6785 119.872 21.57 119.81C21.4615 119.747 21.3698 119.659 21.3027 119.554C21.2356 119.448 21.1953 119.327 21.1851 119.202C21.1749 119.077 21.1952 118.951 21.2442 118.835L21.3656 118.524C21.4145 118.434 21.4738 118.349 21.5422 118.273C21.6695 118.114 21.8047 117.956 21.9474 117.8C22.0961 117.658 22.2514 117.517 22.4134 117.38C22.5783 117.253 22.7538 117.141 22.9379 117.045C23.5476 116.746 24.2062 116.559 24.882 116.495L24.878 116.434Z" fill="black"/>
</g>
</svg>
