<svg width="1049" height="573" viewBox="0 0 1049 573" fill="none" xmlns="http://www.w3.org/2000/svg">
<g opacity="0.4">
<path d="M1019.26 481.441C1035.69 481.441 1049 468.128 1049 451.705C1049 435.283 1035.69 421.97 1019.26 421.97C1002.84 421.97 989.529 435.283 989.529 451.705C989.529 468.128 1002.84 481.441 1019.26 481.441Z" fill="#43468B"/>
<path d="M637.201 350.572C656.942 350.572 672.945 334.568 672.945 314.827C672.945 295.086 656.942 279.083 637.201 279.083C617.459 279.083 601.456 295.086 601.456 314.827C601.456 334.568 617.459 350.572 637.201 350.572Z" fill="url(#paint0_linear_3_472)"/>
<path d="M869.188 102.195C878.411 102.195 885.887 94.7182 885.887 85.4955C885.887 76.2727 878.411 68.7962 869.188 68.7962C859.965 68.7962 852.489 76.2727 852.489 85.4955C852.489 94.7182 859.965 102.195 869.188 102.195Z" fill="url(#paint1_linear_3_472)"/>
<path d="M738.025 572.487C766.196 572.487 789.034 549.649 789.034 521.477C789.034 493.306 766.196 470.468 738.025 470.468C709.853 470.468 687.015 493.306 687.015 521.477C687.015 549.649 709.853 572.487 738.025 572.487Z" fill="#43468B"/>
<path d="M96.2974 46.0775C109.021 46.0775 119.336 35.7627 119.336 23.0387C119.336 10.3148 109.021 0 96.2974 0C83.5734 0 73.2587 10.3148 73.2587 23.0387C73.2587 35.7627 83.5734 46.0775 96.2974 46.0775Z" fill="#43468B"/>
<path d="M440.435 260.544C451.993 260.544 461.362 251.175 461.362 239.617C461.362 228.059 451.993 218.689 440.435 218.689C428.877 218.689 419.508 228.059 419.508 239.617C419.508 251.175 428.877 260.544 440.435 260.544Z" fill="url(#paint2_linear_3_472)"/>
<path d="M475.561 77.6257C490.585 77.6257 502.764 65.4466 502.764 50.4229C502.764 35.3991 490.585 23.22 475.561 23.22C460.537 23.22 448.358 35.3991 448.358 50.4229C448.358 65.4466 460.537 77.6257 475.561 77.6257Z" fill="url(#paint3_linear_3_472)"/>
<path d="M47.5331 482.454C73.7849 482.454 95.0661 461.173 95.0661 434.921C95.0661 408.669 73.7849 387.388 47.5331 387.388C21.2813 387.388 0 408.669 0 434.921C0 461.173 21.2813 482.454 47.5331 482.454Z" fill="url(#paint4_linear_3_472)"/>
</g>
<defs>
<linearGradient id="paint0_linear_3_472" x1="-524.5" y1="286.243" x2="1573.5" y2="286.243" gradientUnits="userSpaceOnUse">
<stop offset="0.1" stop-color="#84B6E0"/>
<stop offset="0.9" stop-color="#464A8F"/>
</linearGradient>
<linearGradient id="paint1_linear_3_472" x1="-524.5" y1="286.243" x2="1573.5" y2="286.243" gradientUnits="userSpaceOnUse">
<stop offset="0.1" stop-color="#F29B7C"/>
<stop offset="0.9" stop-color="#7E6286"/>
</linearGradient>
<linearGradient id="paint2_linear_3_472" x1="-524.5" y1="286.243" x2="1573.5" y2="286.243" gradientUnits="userSpaceOnUse">
<stop offset="0.1" stop-color="#84B6E0"/>
<stop offset="0.9" stop-color="#464A8F"/>
</linearGradient>
<linearGradient id="paint3_linear_3_472" x1="-524.5" y1="286.243" x2="1573.5" y2="286.243" gradientUnits="userSpaceOnUse">
<stop offset="0.1" stop-color="#32325D"/>
<stop offset="0.9" stop-color="#424488"/>
</linearGradient>
<linearGradient id="paint4_linear_3_472" x1="-47.5331" y1="434.921" x2="142.599" y2="434.921" gradientUnits="userSpaceOnUse">
<stop offset="0.1" stop-color="#AB3C51"/>
<stop offset="0.9" stop-color="#4F4484"/>
</linearGradient>
</defs>
</svg>
